<?xml version="1.0" encoding="UTF-8"?><svg xmlns="http://www.w3.org/2000/svg" width="100%" height="100%"><defs><font id="web" horiz-adv-x="1172"><!--



NOTICE: This font software is the valuable property 
of Webtype LLC, The Font Bureau, Ascender Corp and/or 
its suppliers and its use by you is covered under the 
terms of the Web Font license agreement between you 
and Webtype LLC. You may ONLY use this font software 
with the licensed web site. Except as specifically 
permitted by the license, you may not copy this font 
software. If you have any questions, please contact 
Webtype.com. 

For more information, please visit http://www.webtype.com/store/license/?id=23

Licensed to: www.redhat.com

Serial number: SH-111
--><font-face font-family="" units-per-em="2048" panose-1="2 0 5 3 3 0 0 2 0 4" ascent="1872" descent="-432" alphabetic="0"/><missing-glyph horiz-adv-x="553"/><glyph unicode=" " horiz-adv-x="553"/><glyph unicode="!" horiz-adv-x="610" d="M414 797L373 414H238L197 797V1434H414V797ZM459 131Q459 99 447 71T413 22T364 -11T305 -23Q273 -23 246 -11T197 22T164 71T152 131Q152 162 164 190T197 240T245 274T305 287Q336 287 364 275T413 241T446 191T459 131Z"/><glyph unicode="&quot;" horiz-adv-x="1004" d="M856 1434L805 764H651L600 1434H856ZM403 1434L352 764H199L147 1434H403Z"/><glyph unicode="#" horiz-adv-x="1434" d="M1331 328H1085V0H885V328H549V0H348V328H102V522H348V911H102V1106H348V1434H549V1106H885V1434H1085V1106H1331V911H1085V522H1331V328ZM885 522V911H549V522H885Z"/><glyph unicode="$" horiz-adv-x="1262" d="M1135 422Q1135 245 1033 138T729 4V-205H514V4Q450 13 390 32T275 81T175 148T94 231L258 371Q336 286 427 246T621 205Q774 205 844 254T915 399Q915 441 899 473T846 531T747 582T596 633Q482 667 398 701T258 781T175 890T147 1047Q147 1127 175 1192T252 1305T368 1384T514 1427V1638H729V1427Q837 1410 925 1362T1090 1239L940 1087Q902 1120 866 1146T790 1191T705 1219T604 1229Q542 1229 497 1217T423 1183T381 1131T367 1065Q367 1028 380 1000T427 947T521 898T676 846Q784 813 869 779T1014 699T1104 586T1135 422Z"/><glyph unicode="%" horiz-adv-x="2005" d="M809 1012Q809 914 783 832T710 691T597 599T453 565Q375 565 310 597T199 689T128 829T102 1008Q102 1107 127 1189T199 1331T311 1423T457 1456Q538 1456 603 1423T714 1332T784 1191T809 1012ZM1544 1434L666 0H459L1337 1434H1544ZM1903 424Q1903 326 1877 244T1803 103T1690 11T1546 -23Q1468 -23 1404 9T1293 101T1222 241T1196 420Q1196 519 1221 601T1293 743T1405 835T1550 868Q1631 868 1696 835T1808 744T1878 603T1903 424ZM625 1008Q625 1069 614 1119T581 1204T527 1258T455 1278Q373 1278 330 1207T287 1012Q287 950 298 900T331 815T384 761T457 741Q497 741 528 761T581 818T614 903T625 1008ZM1718 420Q1718 481 1707 531T1674 616T1621 671T1548 690Q1467 690 1424 619T1380 424Q1380 362 1391 313T1424 228T1477 173T1550 154Q1591 154 1622 174T1675 231T1707 315T1718 420Z"/><glyph unicode="&amp;" horiz-adv-x="1393" d="M1331 0H1085L973 133Q892 62 792 20T569 -23Q455 -23 370 5T230 85T147 208T119 367Q119 440 138 499T195 609T289 704T420 791L393 823Q358 867 333 905T291 979T266 1050T258 1126Q258 1204 286 1265T365 1368T490 1433T655 1456Q755 1456 850 1422T1040 1321L940 1149Q898 1179 861 1199T788 1233T716 1251T637 1257Q553 1257 513 1224T473 1130Q473 1108 476 1089T487 1050T510 1008T547 958L967 444Q999 500 1023 561T1065 682L1260 627Q1237 539 1199 450T1104 281L1331 0ZM846 285L543 645Q492 616 453 588T388 527T348 458T334 377Q334 334 349 297T394 233T470 190T578 174Q658 174 725 204T846 285Z"/><glyph unicode="'" horiz-adv-x="551" d="M410 1434L358 764H193L141 1434H410Z"/><glyph unicode="(" horiz-adv-x="723" d="M625 -133L518 -225Q441 -152 369 -64T242 128T153 354T119 614Q119 758 152 881T240 1109T367 1303T518 1466L625 1374Q556 1298 504 1215T415 1040T361 845T342 625Q342 499 361 393T418 194T507 21T625 -133Z"/><glyph unicode=")" horiz-adv-x="723" d="M604 629Q604 485 571 362T483 134T356 -60T205 -223L98 -131Q167 -55 219 28T308 203T362 398T381 618Q381 744 361 850T305 1049T216 1222T98 1376L205 1468Q282 1395 354 1307T481 1115T570 889T604 629Z"/><glyph unicode="*" horiz-adv-x="1024" d="M918 893L825 737L571 920L604 606H424L455 922L199 737L106 893L393 1022L109 1151L201 1307L455 1120L424 1434H604L571 1124L823 1307L915 1151L625 1022L918 893Z"/><glyph unicode="+" horiz-adv-x="1214" d="M1102 602H713V203H502V602H113V807H502V1206H713V807H1102V602Z"/><glyph unicode="," horiz-adv-x="520" d="M412 285L258 -258H113L143 285H412Z"/><glyph unicode="-" horiz-adv-x="737" d="M625 645H113V854H625V645Z"/><glyph unicode="." horiz-adv-x="520" d="M422 139Q422 106 409 77T374 25T323 -10T260 -23Q227 -23 198 -10T146 25T111 76T98 139Q98 172 111 201T146 253T197 289T260 303Q293 303 322 290T374 254T409 202T422 139Z"/><glyph unicode="/" horiz-adv-x="913" d="M881 1618L244 -184H33L670 1618H881Z"/><glyph unicode="0" horiz-adv-x="1356" d="M1243 719Q1243 556 1207 420T1099 186T921 32T676 -23Q537 -23 432 31T256 183T149 416T113 715Q113 878 149 1014T257 1248T435 1401T680 1456Q819 1456 924 1402T1100 1251T1207 1018T1243 719ZM1026 715Q1026 828 1007 925T945 1093T837 1206T676 1247Q582 1247 517 1207T410 1096T349 929T330 719Q330 606 349 509T411 340T519 227T680 186Q774 186 840 226T947 338T1007 505T1026 715Z"/><glyph unicode="1" horiz-adv-x="700" d="M508 0H293V1098H39V1247Q94 1251 143 1262T231 1296T297 1352T334 1434H508V0Z"/><glyph unicode="2" horiz-adv-x="1296" d="M1126 0H98Q102 105 124 191T185 350T273 481T384 592T511 687T649 774Q722 817 769 852T844 919T882 983T893 1053Q893 1096 878 1130T829 1189T744 1227T618 1241Q573 1241 527 1231T435 1203T349 1158T272 1098L135 1262Q183 1307 240 1343T361 1404T491 1442T625 1456Q736 1456 826 1432T979 1360T1077 1238T1112 1065Q1112 982 1091 920T1027 806T915 705T752 600Q649 539 581 490T469 395T402 305T367 209H1126V0Z"/><glyph unicode="3" horiz-adv-x="1253" d="M1108 426Q1108 316 1072 232T966 92T797 6T571 -23Q495 -23 419 -7T275 41T150 116T55 215L219 354Q252 313 293 282T379 231T474 200T571 190Q657 190 717 206T814 252T868 327T885 426Q885 481 866 521T811 588T729 628T625 641H492V850H623Q673 850 710 865T773 907T812 970T825 1047Q825 1077 813 1111T769 1175T686 1224T555 1243Q470 1243 401 1208T272 1110L113 1262Q204 1356 313 1406T559 1456Q660 1456 749 1431T905 1356T1010 1234T1049 1067Q1049 1002 1036 953T999 867T943 802T874 754Q925 739 968 711T1042 642T1090 547T1108 426Z"/><glyph unicode="4" horiz-adv-x="1366" d="M1260 322H1069V0H860V315H84V520L823 1434H1069V512H1260V322ZM866 1192Q856 1178 842 1158T810 1115T774 1068T737 1022L461 670Q445 649 426 626T389 582T354 541T326 510Q344 510 372 510T432 511T496 511T557 512H860V930Q860 961 861 998T863 1071T865 1140T866 1192Z"/><glyph unicode="5" horiz-adv-x="1303" d="M1176 487Q1176 356 1134 260T1017 101T838 8T610 -23Q473 -23 350 10T111 119L215 297Q260 271 310 251T412 216T516 194T616 186Q785 186 870 263T956 477Q956 541 936 589T878 669T787 717T666 733Q575 733 510 709T389 643L160 733L209 1434H1090V1229H401L373 866Q433 900 509 920T682 940Q805 940 897 906T1052 812T1145 668T1176 487Z"/><glyph unicode="6" horiz-adv-x="1303" d="M1212 455Q1212 337 1169 248T1050 98T872 8T651 -23Q538 -23 440 9T269 111T155 288T113 549Q113 643 131 745T192 946T302 1135T469 1295T699 1408T1001 1456V1253Q754 1242 589 1127T354 788Q392 818 431 839T515 875T613 896T731 903Q828 903 915 876T1069 794T1173 654T1212 455ZM995 451Q995 580 909 640T670 700Q592 700 529 685T423 638T356 559T332 449Q332 396 353 349T415 265T517 208T659 186Q741 186 803 204T908 257T973 341T995 451Z"/><glyph unicode="7" horiz-adv-x="1217" d="M1051 1217Q959 1115 875 987T725 706T618 376T573 0H356Q359 185 391 351T481 668T619 957T801 1225H49V1434H1051V1217Z"/><glyph unicode="8" horiz-adv-x="1372" d="M1249 418Q1249 312 1209 230T1095 92T917 6T682 -23Q552 -23 449 6T273 91T162 230T123 418Q123 548 187 638T377 774Q321 797 284 831T225 903T194 980T184 1051Q184 1154 223 1230T331 1357T491 1431T688 1456Q784 1456 874 1432T1034 1359T1146 1234T1188 1055Q1188 1023 1179 984T1147 906T1088 831T995 774Q1053 753 1100 721T1180 644T1231 543T1249 418ZM971 1049Q971 1089 956 1127T906 1195T817 1242T684 1260Q606 1260 552 1244T465 1199T416 1134T401 1057Q401 1014 421 978T478 916T568 875T688 860Q757 860 810 875T898 915T952 975T971 1049ZM1032 412Q1032 469 1012 514T948 591T840 640T684 657Q512 657 426 594T340 422Q340 365 363 319T430 241T538 192T686 174Q772 174 836 191T944 240T1010 315T1032 412Z"/><glyph unicode="9" horiz-adv-x="1303" d="M1190 885Q1190 791 1172 689T1111 488T1001 298T834 139T603 26T301 -23V180Q548 191 713 306T948 645Q910 615 871 594T787 558T689 537T571 530Q473 530 386 557T233 640T129 780T90 979Q90 1096 133 1185T252 1335T430 1425T651 1456Q764 1456 862 1424T1033 1322T1148 1145T1190 885ZM971 985Q971 1037 950 1084T888 1168T785 1225T643 1247Q562 1247 499 1229T394 1176T329 1093T307 983Q307 854 393 794T633 733Q711 733 774 748T880 795T947 874T971 985Z"/><glyph unicode=":" horiz-adv-x="520" d="M422 934Q422 901 409 872T374 820T323 785T260 772Q227 772 198 785T146 820T111 871T98 934Q98 967 111 996T146 1048T197 1084T260 1098Q293 1098 322 1085T374 1049T409 997T422 934ZM422 139Q422 106 409 77T374 25T323 -10T260 -23Q227 -23 198 -10T146 25T111 76T98 139Q98 172 111 201T146 253T197 289T260 303Q293 303 322 290T374 254T409 202T422 139Z"/><glyph unicode=";" horiz-adv-x="520" d="M422 934Q422 901 409 872T374 820T323 785T260 772Q227 772 198 785T146 820T111 871T98 934Q98 967 111 996T146 1048T197 1084T260 1098Q293 1098 322 1085T374 1049T409 997T422 934ZM397 285L244 -258H98L129 285H397Z"/><glyph unicode="&lt;" horiz-adv-x="848" d="M713 96L117 614V795L713 1313V1047L315 707L713 365V96Z"/><glyph unicode="=" horiz-adv-x="1214" d="M1051 838H164V1042H1051V838ZM1051 367H164V571H1051V367Z"/><glyph unicode="&gt;" horiz-adv-x="848" d="M731 614L135 96V362L532 702L135 1044V1313L731 795V614Z"/><glyph unicode="?" horiz-adv-x="1169" d="M1059 1075Q1059 1001 1042 945T992 845T909 765T795 692Q745 664 715 639T669 584T647 513T641 414H418Q418 504 428 567T468 679T550 771T688 860Q727 882 756 902T803 946T831 998T840 1063Q840 1150 768 1196T563 1243Q506 1243 458 1232T367 1200T285 1150T207 1083L70 1245Q113 1289 166 1327T283 1394T417 1439T569 1456Q678 1456 768 1432T923 1359T1023 1240T1059 1075ZM682 131Q682 99 670 71T636 22T587 -11T528 -23Q496 -23 469 -11T420 22T387 71T375 131Q375 162 387 190T420 240T468 274T528 287Q559 287 587 275T636 241T669 191T682 131Z"/><glyph unicode="@" horiz-adv-x="1712" d="M1595 737Q1595 621 1572 541T1507 410T1409 338T1284 315Q1204 315 1149 351T1065 442Q1047 418 1018 395T953 354T879 326T803 315Q744 315 688 332T589 384T519 472T492 596Q492 662 518 711T590 792T695 840T821 856Q883 856 936 840T1024 803V907Q1024 972 975 1000T834 1028Q777 1028 729 1018T635 979L578 1079Q635 1113 703 1131T842 1149Q914 1149 973 1134T1073 1089T1138 1012T1161 903V559Q1161 503 1192 470T1296 436Q1392 436 1434 513T1477 739Q1477 861 1430 970T1300 1161T1103 1291T856 1339Q722 1339 608 1292T412 1163T283 966T236 719Q236 584 282 470T411 273T608 143T856 96Q925 96 989 109T1122 156L1171 47Q1127 27 1089 14T1014 -8T939 -19T856 -23Q749 -23 653 2T474 73T326 186T214 335T142 513T117 717Q117 824 142 920T213 1099T326 1247T474 1359T652 1431T856 1456Q965 1456 1062 1430T1241 1357T1389 1243T1500 1096T1570 925T1595 737ZM1024 553V678Q993 701 938 720T813 739Q725 739 675 704T625 600Q625 526 675 482T823 438Q851 438 881 446T938 470T987 506T1024 553Z"/><glyph unicode="A" horiz-adv-x="1458" d="M1362 0H1133L1012 340H438L319 0H96L612 1434H840L1362 0ZM946 532L831 862Q818 901 802 948T771 1042T742 1129T723 1192Q717 1169 705 1129T679 1043T648 948T618 860L504 532H946Z"/><glyph unicode="B" horiz-adv-x="1382" d="M1247 440Q1247 222 1119 111T756 0H186V1434H776Q870 1434 946 1410T1076 1338T1159 1222T1188 1061Q1188 1006 1174 962T1136 882T1079 820T1006 774Q1048 762 1091 737T1168 670T1225 572T1247 440ZM973 1049Q973 1089 962 1123T928 1182T866 1222T774 1237H389V866H774Q827 866 864 881T926 921T961 980T973 1049ZM1032 434Q1032 546 966 609T778 672H389V197H772Q844 197 893 214T973 262T1018 337T1032 434Z"/><glyph unicode="C" horiz-adv-x="1341" d="M1219 252Q1141 119 1015 48T725 -23Q586 -23 474 31T283 184T162 418T119 717Q119 880 161 1015T283 1249T474 1401T725 1456Q900 1456 1019 1387T1212 1188L1022 1069Q994 1113 965 1145T901 1199T823 1230T725 1241Q631 1241 559 1205T439 1100T365 934T340 717Q340 596 365 499T438 334T559 230T725 193Q837 193 911 238T1040 371L1219 252Z"/><glyph unicode="D" horiz-adv-x="1391" d="M1276 717Q1276 590 1251 488T1179 307T1068 169T926 74T760 18T578 0H186V1434H578Q722 1434 849 1393T1071 1265T1221 1043T1276 717ZM1057 717Q1057 830 1030 923T945 1084T796 1188T578 1225H401V209H578Q705 209 796 246T945 350T1030 510T1057 717Z"/><glyph unicode="E" horiz-adv-x="1260" d="M1141 0H186V1434H1110V1225H401V870H813V662H401V209H1141V0Z"/><glyph unicode="F" horiz-adv-x="1192" d="M1110 1223H401V848H813V637H401V0H186V1434H1110V1223Z"/><glyph unicode="G" horiz-adv-x="1389" d="M1270 561Q1270 423 1230 315T1117 131T945 17T725 -23Q586 -23 474 31T283 184T162 418T119 717Q119 880 161 1015T283 1249T474 1401T725 1456Q900 1456 1019 1387T1212 1188L1024 1071Q996 1115 967 1147T902 1200T824 1231T725 1241Q631 1241 559 1205T438 1100T364 934T338 717Q338 596 363 499T438 334T559 230T725 193Q812 193 874 219T975 290T1033 393T1051 514V520H817V727H1270V561Z"/><glyph unicode="H" horiz-adv-x="1462" d="M1276 0H1061V639H401V0H186V1434H401V854H1061V1434H1276V0Z"/><glyph unicode="I" horiz-adv-x="608" d="M412 0H197V1434H412V0Z"/><glyph unicode="J" horiz-adv-x="1235" d="M1059 565Q1059 276 934 127T549 -23Q448 -23 368 3T226 78T120 197T49 358L258 420Q299 309 368 251T555 193Q633 193 687 215T777 285T828 406T844 582V1434H1059V565Z"/><glyph unicode="K" horiz-adv-x="1403" d="M1317 0H1073L662 735L395 414V0H186V1434H395V942Q395 922 395 886T394 812T393 740T391 688Q400 702 420 729T465 787T514 850T557 903L981 1434H1225L805 913L1317 0Z"/><glyph unicode="L" horiz-adv-x="1219" d="M1116 0H186V1434H401V211H1116V0Z"/><glyph unicode="M" horiz-adv-x="1655" d="M1468 0H1257V758Q1257 790 1257 828T1258 901T1260 965T1262 1010Q1256 995 1246 969T1223 913T1196 849T1169 784L821 -23L477 784Q464 815 450 848T424 912T401 969T385 1010Q386 995 386 966T387 901T388 828T389 758V0H186V1434H408L729 670Q742 639 756 605T784 538T809 476T827 424Q835 446 846 475T870 537T897 604T924 670L1239 1434H1468V0Z"/><glyph unicode="N" horiz-adv-x="1462" d="M1276 0H1071L500 899Q487 919 472 943T442 993T415 1039T393 1075Q393 1055 393 1012T394 919T394 821T395 743V0H186V1434H406L950 559Q964 537 981 508T1016 449T1047 395T1069 356Q1069 376 1069 420T1068 515T1068 615T1067 694V1434H1276V0Z"/><glyph unicode="O" horiz-adv-x="1456" d="M1339 719Q1339 551 1295 415T1169 181T975 30T725 -23Q589 -23 477 29T285 178T161 411T117 715Q117 882 161 1019T287 1253T480 1403T729 1456Q866 1456 978 1404T1171 1255T1295 1022T1339 719ZM1120 715Q1120 837 1090 934T1007 1100T882 1206T723 1243Q638 1243 567 1207T445 1103T365 938T336 719Q336 597 365 499T447 333T572 227T731 190Q816 190 887 226T1010 330T1091 495T1120 715Z"/><glyph unicode="P" horiz-adv-x="1337" d="M1247 985Q1247 874 1212 790T1114 650T964 564T772 535H397V0H186V1434H786Q885 1434 969 1406T1115 1321T1212 1181T1247 985ZM1028 985Q1028 1044 1011 1090T961 1167T884 1215T782 1231H397V737H782Q906 737 967 803T1028 985Z"/><glyph unicode="Q" horiz-adv-x="1452" d="M1333 717Q1333 527 1274 377T1112 129L1208 -20L1032 -131L936 16Q888 -2 835 -12T725 -23Q586 -23 474 31T283 184T162 418T119 717Q119 880 161 1015T283 1249T474 1401T725 1456Q865 1456 977 1402T1169 1249T1290 1016T1333 717ZM1114 717Q1114 837 1089 934T1014 1099T892 1204T725 1241Q631 1241 559 1205T438 1100T364 934T338 717Q338 596 363 499T438 332T559 226T725 188Q754 188 777 191T821 199L717 360L893 471L997 307Q1059 375 1086 479T1114 717Z"/><glyph unicode="R" horiz-adv-x="1421" d="M1276 1006Q1276 920 1254 851T1191 729T1092 640T961 586L1253 0H1006L721 567H397V0H186V1434H815Q909 1434 992 1409T1139 1331T1239 1197T1276 1006ZM1059 999Q1059 1055 1042 1098T992 1171T915 1216T815 1231H397V770H815Q869 770 913 784T990 826T1041 898T1059 999Z"/><glyph unicode="S" horiz-adv-x="1282" d="M1147 412Q1147 315 1116 235T1019 98T854 9T616 -23Q538 -23 466 -7T329 40T208 113T106 209L260 358Q296 319 340 288T432 234T531 200T633 188Q785 188 857 240T930 397Q930 439 913 471T858 530T758 583T606 635Q492 669 408 703T269 783T186 895T158 1057Q158 1150 195 1224T295 1349T445 1428T631 1456Q777 1456 890 1405T1100 1262L948 1108Q880 1177 801 1211T614 1245Q551 1245 506 1231T432 1192T389 1136T375 1067Q375 1029 389 1000T438 946T534 896T688 844Q794 812 879 777T1023 692T1115 576T1147 412Z"/><glyph unicode="T" horiz-adv-x="1243" d="M1147 1223H729V0H514V1223H96V1434H1147V1223Z"/><glyph unicode="U" horiz-adv-x="1442" d="M1266 598Q1266 448 1230 332T1124 137T951 18T715 -23Q582 -23 481 19T313 141T211 338T176 602V1434H391V608Q391 404 474 299T719 193Q888 193 969 295T1051 594V1434H1266V598Z"/><glyph unicode="V" horiz-adv-x="1409" d="M1313 1434L821 0H594L96 1434H330L629 520Q639 488 651 451T674 377T694 309T709 258Q713 277 722 309T743 377T766 452T788 522L1083 1434H1313Z"/><glyph unicode="W" horiz-adv-x="1767" d="M1665 1434L1372 0H1155L932 926Q927 944 921 971T909 1026T898 1078T891 1116Q889 1103 884 1079T873 1026T861 971T850 926L616 0H403L111 1434H328L500 528Q503 512 507 487T516 436T525 384T532 340Q535 358 540 383T551 434T562 485T571 526L801 1434H985L1219 506Q1223 491 1227 471T1236 428T1245 382T1253 340Q1257 360 1261 383T1269 430T1276 474T1282 508L1456 1434H1665Z"/><glyph unicode="X" horiz-adv-x="1350" d="M1257 0H1001L840 279Q820 312 797 354T752 437T711 513T682 569Q673 549 655 514T614 439T568 356T524 279L365 0H113L557 739L141 1434H397L528 1202Q547 1169 570 1127T615 1043T657 965T686 909Q696 929 714 964T755 1041T800 1124T844 1202L977 1434H1229L813 741L1257 0Z"/><glyph unicode="Y" horiz-adv-x="1411" d="M1327 1434L813 567V0H598V567L84 1434H336L559 1038Q577 1005 599 964T642 883T680 809T707 754Q716 774 733 807T770 880T813 960T854 1036L1079 1434H1327Z"/><glyph unicode="Z" horiz-adv-x="1360" d="M1212 0H123V209L823 1055Q840 1076 862 1102T907 1154T950 1202T985 1239Q964 1238 928 1238T851 1237T769 1236T696 1235H164V1434H1212V1225L520 379Q503 358 481 332T436 280T393 231T358 195Q380 196 416 196T493 197T574 198T647 199H1212V0Z"/><glyph unicode="[" horiz-adv-x="778" d="M649 -225H195V1434H649V1260H397V-51H649V-225Z"/><glyph unicode="\" horiz-adv-x="913" d="M881 -184H670L33 1618H244L881 -184Z"/><glyph unicode="]" horiz-adv-x="778" d="M584 -225H129V-51H381V1260H129V1434H584V-225Z"/><glyph unicode="^" horiz-adv-x="1184" d="M1087 782H852L590 1210L328 782H96L510 1434H674L1087 782Z"/><glyph unicode="_" horiz-adv-x="1024" d="M1024 -362H0V-168H1024V-362Z"/><glyph unicode="`" horiz-adv-x="1024" d="M711 1219H543L205 1546H492L711 1219Z"/><glyph unicode="a" horiz-adv-x="1126" d="M979 0H772V106Q716 51 641 14T477 -23Q412 -23 346 -4T226 59T138 172T104 340Q104 430 136 495T226 604T362 667T532 688Q682 688 772 647V727Q772 815 720 862T569 909Q486 909 419 893T289 842L207 1001Q284 1049 372 1073T575 1098Q665 1098 739 1076T867 1009T949 896T979 737V0ZM772 305V459Q729 480 671 493T526 506Q424 506 365 463T305 346Q305 266 356 217T512 168Q554 168 593 180T666 211T727 255T772 305Z"/><glyph unicode="b" horiz-adv-x="1167" d="M1059 520Q1059 382 1024 280T931 111T796 10T635 -23Q594 -23 555 -13T481 14T417 53T365 100V0H156V1384L365 1493V973Q423 1027 491 1062T645 1098Q732 1098 807 1066T939 963T1027 784T1059 520ZM848 514Q848 716 786 809T606 903Q568 903 534 892T468 861T410 817T362 766V313Q380 289 406 264T466 219T536 185T614 172Q729 172 788 257T848 514Z"/><glyph unicode="c" horiz-adv-x="1069" d="M956 915L831 766Q765 834 704 865T569 897Q512 897 466 872T386 801T335 689T317 541Q317 462 334 396T383 281T464 205T575 178Q613 178 644 186T703 211T759 253T819 311L954 178Q922 138 886 102T803 38T700 -6T569 -23Q471 -23 386 17T239 130T140 306T104 535Q104 668 140 773T241 950T391 1060T575 1098Q694 1098 787 1052T956 915Z"/><glyph unicode="d" horiz-adv-x="1167" d="M1012 0H803V102Q744 48 676 13T522 -23Q435 -23 360 9T229 112T141 291T109 555Q109 693 143 795T236 965T371 1065T532 1098Q573 1098 612 1088T686 1061T750 1022T803 975V1384L1012 1493V0ZM805 309V762Q787 786 761 811T701 856T631 890T553 903Q438 903 379 818T319 561Q319 460 335 387T382 266T458 195T561 172Q599 172 634 183T700 214T757 258T805 309Z"/><glyph unicode="e" horiz-adv-x="1135" d="M1028 559Q1028 530 1026 505T1022 463H311Q320 385 345 330T406 238T487 185T582 168Q650 168 705 191T815 254L940 119Q869 51 781 14T569 -23Q474 -23 390 14T242 123T141 299T104 537Q104 673 138 778T235 954T384 1061T575 1098Q690 1098 775 1055T916 938T1000 766T1028 559ZM815 637Q811 692 796 741T750 827T673 885T561 907Q455 907 392 837T315 637H815Z"/><glyph unicode="f" horiz-adv-x="741" d="M659 1282Q622 1293 593 1298T537 1303Q484 1303 461 1280T438 1198V1075H637V879H438V0H227V879H88V1075H227V1217Q227 1290 248 1341T306 1425T393 1472T500 1487Q542 1487 583 1482T659 1466V1282Z"/><glyph unicode="g" horiz-adv-x="1167" d="M1012 102Q1012 -21 988 -112T904 -264T748 -358T504 -395L432 -236Q546 -230 617 -211T730 -154T786 -58T801 84V102Q772 75 741 53T675 13T602 -13T522 -23Q436 -23 361 9T230 112T142 291T109 555Q109 693 144 795T237 965T372 1065T532 1098Q573 1098 612 1088T685 1061T749 1022T801 975V1075H1012V102ZM805 309V762Q787 786 761 811T701 856T631 890T553 903Q438 903 379 818T319 561Q319 460 335 387T382 266T458 195T561 172Q599 172 634 183T700 214T757 258T805 309Z"/><glyph unicode="h" horiz-adv-x="1167" d="M1020 0H809V608Q809 689 794 745T751 837T681 887T588 903Q481 903 424 832T367 629V0H156V1382L367 1493V973Q387 1002 416 1025T480 1065T555 1089T637 1098Q826 1098 923 977T1020 616V0Z"/><glyph unicode="i" horiz-adv-x="543" d="M408 1350Q408 1322 397 1298T368 1255T325 1225T272 1214Q244 1214 219 1225T176 1254T146 1297T135 1350Q135 1378 146 1403T175 1446T219 1476T272 1487Q300 1487 324 1476T367 1447T397 1403T408 1350ZM377 0H166V1075H377V0Z"/><glyph unicode="j" horiz-adv-x="543" d="M408 1350Q408 1322 397 1298T368 1255T325 1225T272 1214Q244 1214 219 1225T176 1254T146 1297T135 1350Q135 1378 146 1403T175 1446T219 1476T272 1487Q300 1487 324 1476T367 1447T397 1403T408 1350ZM377 49Q377 -52 362 -125T306 -251T194 -338T12 -395L-59 -236Q14 -215 58 -195T127 -144T158 -69T166 45V1075H377V49Z"/><glyph unicode="k" horiz-adv-x="1083" d="M997 0H768L530 535L367 317V0H156V1382L367 1493V815Q367 791 367 760T366 696T366 635T365 586Q375 602 390 624T421 671T453 719T483 762L707 1075H946L674 715L997 0Z"/><glyph unicode="l" horiz-adv-x="543" d="M377 0H166V1382L377 1493V0Z"/><glyph unicode="m" horiz-adv-x="1763" d="M1616 0H1405V608Q1405 689 1392 745T1354 837T1289 887T1198 903Q1092 903 1042 832T991 629V0H780V608Q780 689 768 745T729 837T664 887T573 903Q467 903 417 832T367 629V0H156V1075H367V973Q407 1032 473 1065T623 1098Q732 1098 803 1058T918 940Q947 976 978 1005T1048 1055T1135 1087T1247 1098Q1434 1098 1525 976T1616 616V0Z"/><glyph unicode="n" horiz-adv-x="1167" d="M1020 0H809V608Q809 689 794 745T751 837T681 887T588 903Q481 903 424 832T367 629V0H156V1075H367V973Q387 1002 416 1025T480 1065T555 1089T637 1098Q826 1098 923 977T1020 616V0Z"/><glyph unicode="o" horiz-adv-x="1167" d="M1063 543Q1063 409 1026 304T924 126T770 15T578 -23Q476 -23 390 17T240 130T140 307T104 537Q104 669 141 773T242 949T394 1060T584 1098Q687 1098 774 1059T926 947T1026 772T1063 543ZM850 537Q850 619 831 685T777 799T690 871T575 897Q515 897 468 872T387 800T335 688T317 543Q317 454 336 386T391 272T476 202T586 178Q646 178 694 206T777 283T831 397T850 537Z"/><glyph unicode="p" horiz-adv-x="1167" d="M1059 520Q1059 382 1024 280T931 111T796 10T635 -23Q594 -23 555 -13T481 14T417 53T365 100V-287L156 -395V1075H365V973Q423 1027 491 1062T645 1098Q732 1098 807 1066T939 963T1027 784T1059 520ZM848 514Q848 716 786 809T606 903Q568 903 534 892T468 861T410 817T362 766V313Q380 289 406 264T466 219T536 185T614 172Q729 172 788 257T848 514Z"/><glyph unicode="q" horiz-adv-x="1167" d="M1012 -287L803 -395V102Q744 48 676 13T522 -23Q435 -23 360 9T229 112T141 291T109 555Q109 693 143 795T236 965T371 1065T532 1098Q573 1098 612 1088T686 1061T750 1022T803 975V1075H1012V-287ZM805 309V762Q787 786 761 811T701 856T631 890T553 903Q438 903 379 818T319 561Q319 460 335 387T382 266T458 195T561 172Q599 172 634 183T700 214T757 258T805 309Z"/><glyph unicode="r" horiz-adv-x="856" d="M795 1053L739 852Q705 871 668 881T578 891Q477 891 422 822T367 614V0H156V1075H367V973Q385 1000 411 1022T468 1062T536 1088T612 1098Q677 1098 720 1086T795 1053Z"/><glyph unicode="s" horiz-adv-x="1022" d="M907 295Q907 206 874 145T785 47T656 -7T504 -23Q449 -23 393 -13T284 16T182 59T92 115L188 274Q264 222 345 195T502 168Q602 168 650 199T698 287Q698 318 681 341T632 385T553 425T449 467Q362 501 302 534T204 606T150 693T133 805Q133 877 160 932T236 1023T352 1079T500 1098Q602 1098 697 1065T864 979L772 817Q706 864 639 886T494 909Q416 909 381 882T346 811Q346 791 354 773T385 737T445 699T545 655Q635 620 702 588T815 517T884 424T907 295Z"/><glyph unicode="t" horiz-adv-x="825" d="M694 213L670 27Q631 5 579 -9T463 -23Q350 -23 286 47T221 262V883H68V1075H221V1382L428 1493V1075H694V883H428V299Q428 261 434 237T454 197T489 176T539 170Q580 170 622 183T694 213Z"/><glyph unicode="u" horiz-adv-x="1167" d="M1012 0H801V102Q781 73 752 50T688 11T612 -14T530 -23Q342 -23 245 98T147 459V1075H358V467Q358 386 373 330T416 238T486 188T580 172Q686 172 743 243T801 446V1075H1012V0Z"/><glyph unicode="v" horiz-adv-x="1110" d="M1042 1075L664 0H453L68 1075H289L481 492Q507 413 528 343T561 227Q570 272 590 342T635 492L819 1075H1042Z"/><glyph unicode="w" horiz-adv-x="1518" d="M1436 1075L1137 0H956L811 543Q802 574 794 606T779 669T766 726T756 772Q752 753 746 726T733 668T717 605T700 541L557 0H377L82 1075H291L418 553Q425 522 433 489T448 424T461 364T471 317Q475 337 482 364T497 423T513 488T530 553L674 1075H844L989 551Q998 519 1006 487T1021 423T1035 365T1047 317Q1051 337 1057 365T1070 424T1084 489T1100 553L1227 1075H1436Z"/><glyph unicode="x" horiz-adv-x="1087" d="M1006 0H756L653 186Q637 215 620 247T588 308T561 363T541 403Q534 388 521 362T491 306T457 244T424 184L319 0H82L420 557L104 1075H348L432 924Q448 895 465 864T497 803T525 749T545 709Q553 724 566 749T594 805T627 867T659 928L741 1075H983L666 557L1006 0Z"/><glyph unicode="y" horiz-adv-x="1139" d="M1071 1075L530 -379H307L463 20L68 1075H299L475 549Q487 514 501 469T529 380T553 297T569 236Q576 260 587 298T612 379T640 466T666 545L848 1075H1071Z"/><glyph unicode="z" horiz-adv-x="1079" d="M948 0H119V172L580 735Q596 755 614 777T649 820T682 860T709 891Q694 890 670 890T618 890T563 890T516 891H160V1075H948V905L498 342Q482 321 464 299T428 255T395 215T369 184Q384 185 409 185T462 185T517 185T565 184H948V0Z"/><glyph unicode="{" horiz-adv-x="870" d="M762 -225Q637 -225 548 -198T401 -117T316 18T289 207V338Q289 391 284 425T265 480T229 508T172 516H125V698H172Q206 698 229 706T265 734T283 789T289 877V1010Q289 1117 316 1198T401 1334T548 1416T762 1444V1288Q687 1280 637 1261T557 1209T515 1130T502 1022V926Q502 854 494 801T468 710T420 647T346 606Q390 591 420 567T468 505T494 414T502 289V193Q502 132 514 87T557 10T637 -41T762 -68V-225Z"/><glyph unicode="|" horiz-adv-x="604" d="M399 -379H205V1638H399V-379Z"/><glyph unicode="}" horiz-adv-x="870" d="M745 520H698Q663 520 641 512T606 484T587 430T582 342V209Q582 101 555 20T470 -115T323 -197T109 -225V-70Q183 -62 233 -43T313 10T356 89T369 197V293Q369 365 377 418T403 508T450 571T524 612Q480 627 451 651T403 714T377 805T369 930V1026Q369 1087 356 1132T313 1209T233 1259T109 1286V1444Q233 1444 322 1417T469 1335T554 1200T582 1012V881Q582 828 587 793T605 738T641 710T698 702H745V520Z"/><glyph unicode="~" horiz-adv-x="1151" d="M1065 868Q1037 797 1006 744T938 654T855 599T752 580Q720 580 695 584T648 596T603 618T555 649Q522 671 497 687T452 712T416 726T385 731Q360 731 342 724T306 698T272 650T233 575L86 651Q114 722 145 776T213 866T296 921T399 940Q430 940 455 936T503 923T548 901T596 870Q655 830 696 809T764 788Q788 788 807 795T843 821T878 869T918 944L1065 868Z"/><glyph unicode=" " horiz-adv-x="276"/><glyph unicode="¡" horiz-adv-x="610" d="M459 1303Q459 1271 447 1243T413 1194T364 1160T305 1147Q273 1147 246 1159T197 1193T164 1243T152 1303Q152 1334 164 1362T197 1411T245 1444T305 1456Q336 1456 364 1444T413 1411T446 1362T459 1303ZM414 0H197V637L238 1020H373L414 637V0Z"/><glyph unicode="¢" horiz-adv-x="1069" d="M956 1108L831 965Q765 1033 704 1064T569 1096Q512 1096 466 1071T386 999T335 885T317 733Q317 652 334 584T383 468T464 392T575 365Q613 365 645 373T706 397T763 437T823 494L954 371Q929 339 901 309T838 254T764 209T674 180V-23H459V184Q381 204 316 251T204 368T131 528T104 727Q104 840 130 932T204 1094T317 1210T459 1276V1456H674V1282Q759 1265 828 1221T956 1108Z"/><glyph unicode="£" horiz-adv-x="1305" d="M1212 1262L1077 1100Q1006 1169 912 1206T717 1243Q642 1243 591 1230T509 1194T465 1140T451 1073Q451 1030 469 983T510 889Q524 860 538 829T561 764H885V573H578Q573 519 561 471T529 378T480 289T414 199H1184V0H176V209Q221 255 254 296T311 380T348 469T367 573H176V764H336Q327 787 316 811T293 860Q265 913 246 969T227 1079Q227 1170 262 1240T361 1359T517 1431T721 1456Q866 1456 986 1407T1212 1262Z"/><glyph unicode="¤" horiz-adv-x="1152" d="M1056 392L940 284L740 500Q668 452 572 452Q480 452 408 500L208 284L92 392L300 608Q272 648 262 686T252 780Q252 828 262 870T300 952L92 1168L208 1276L408 1060Q480 1108 572 1108Q668 1108 740 1060L944 1276L1060 1156L852 952Q880 912 890 872T900 780Q900 684 848 608L1056 392ZM748 780Q748 860 698 910T572 960Q496 960 448 910T400 780Q400 700 450 652T572 604Q652 604 700 652T748 780Z"/><glyph unicode="¥" horiz-adv-x="1309" d="M1245 1434L760 567V430H1090V242H760V0H549V242H219V430H549V559L63 1434H305L500 1065Q518 1030 542 986T588 897T629 813T655 750Q664 774 682 812T723 894T768 982T811 1063L1008 1434H1245Z"/><glyph unicode="¦" horiz-adv-x="640" d="M216 788V1636H424V788H216ZM216 -412V440H424V-412H216Z"/><glyph unicode="§" horiz-adv-x="1352" d="M1239 514Q1239 455 1220 407T1168 318T1096 246T1016 190Q1048 153 1066 107T1085 -2Q1085 -73 1058 -134T979 -240T852 -310T680 -336Q560 -336 459 -299T264 -188L393 -23Q468 -81 543 -106T700 -131Q785 -131 823 -96T862 -8Q862 33 832 62T752 114T638 158T506 201Q433 225 363 257T237 335T147 448T113 606Q113 664 132 713T183 802T255 874T336 930Q304 967 285 1013T266 1122Q266 1193 293 1254T373 1360T500 1430T672 1456Q792 1456 892 1420T1087 1309L958 1143Q884 1202 809 1226T651 1251Q609 1251 579 1242T528 1216T499 1177T489 1128Q489 1087 519 1058T600 1006T714 963T846 920Q919 895 989 863T1115 785T1205 672T1239 514ZM1018 494Q1018 542 997 578T941 641T858 690T756 729Q691 751 625 772T496 821Q467 806 439 788T387 745T349 692T334 627Q334 579 355 543T411 479T494 430T596 391Q661 369 727 348T856 299Q884 314 913 332T965 375T1003 428T1018 494Z"/><glyph unicode="¨" horiz-adv-x="1024" d="M850 1356Q850 1328 839 1303T809 1260T765 1230T713 1219Q684 1219 659 1230T615 1259T584 1303T573 1356Q573 1384 584 1409T614 1454T659 1484T713 1495Q740 1495 765 1484T809 1454T839 1410T850 1356ZM451 1356Q451 1328 440 1303T410 1260T366 1230T313 1219Q285 1219 260 1230T215 1259T185 1303T174 1356Q174 1384 185 1409T215 1454T259 1484T313 1495Q341 1495 366 1484T410 1454T440 1410T451 1356Z"/><glyph unicode="©" horiz-adv-x="1712" d="M1595 717Q1595 612 1570 517T1497 339T1383 190T1234 76T1057 3T856 -23Q698 -23 563 33T329 189T174 424T117 717Q117 822 142 917T215 1095T329 1244T478 1358T655 1430T856 1456Q961 1456 1056 1431T1234 1358T1383 1244T1497 1095T1569 918T1595 717ZM1477 717Q1477 849 1430 962T1299 1159T1102 1289T856 1337Q724 1337 611 1290T414 1159T284 963T236 717Q236 585 283 472T414 275T610 144T856 96Q988 96 1101 143T1298 274T1429 471T1477 717ZM1147 469Q1099 387 1027 345T862 303Q784 303 721 333T614 419T545 552T520 721Q520 813 544 889T613 1021T721 1106T862 1137Q962 1137 1030 1097T1143 977L1022 901Q990 952 955 975T862 999Q812 999 775 980T712 924T675 837T662 721Q662 657 674 605T712 517T774 460T862 440Q921 440 959 466T1032 547L1147 469Z"/><glyph unicode="ª" horiz-adv-x="942" d="M801 571H627V647Q582 604 524 578T399 551Q346 551 292 567T194 618T122 709T94 846Q94 916 121 969T195 1057T306 1110T444 1128Q498 1128 545 1120T627 1096V1151Q627 1220 587 1257T469 1294Q406 1294 352 1283T246 1243L178 1372Q240 1410 312 1433T475 1456Q547 1456 607 1438T710 1382T777 1289T801 1159V571ZM627 821V936Q592 953 547 964T436 975Q356 975 310 942T264 850Q264 785 303 749T426 713Q458 713 488 722T545 747T592 781T627 821Z"/><glyph unicode="«" horiz-adv-x="1204" d="M1122 0H895L516 537L895 1075H1122L754 539L1122 0ZM668 0H440L61 537L440 1075H668L299 539L668 0Z"/><glyph unicode="¬" horiz-adv-x="1536" d="M1116 352V728H212V920H1296V352H1116Z"/><glyph unicode="­" horiz-adv-x="737" d="M625 645H113V854H625V645Z"/><glyph unicode="®" horiz-adv-x="1712" d="M1595 717Q1595 612 1570 517T1497 339T1383 190T1234 76T1057 3T856 -23Q698 -23 563 33T329 189T174 424T117 717Q117 822 142 917T215 1095T329 1244T478 1358T655 1430T856 1456Q961 1456 1056 1431T1234 1358T1383 1244T1497 1095T1569 918T1595 717ZM1477 717Q1477 849 1430 962T1299 1159T1102 1289T856 1337Q724 1337 611 1290T414 1159T284 963T236 717Q236 585 283 472T414 275T610 144T856 96Q988 96 1101 143T1298 274T1429 471T1477 717ZM1194 891Q1194 795 1147 736T1022 653L1188 328H1026L868 639H713V328H575V1135H930Q984 1135 1032 1121T1116 1076T1173 1000T1194 891ZM1055 887Q1055 944 1018 972T926 1001H713V772H926Q981 772 1018 799T1055 887Z"/><glyph unicode="¯" horiz-adv-x="1024" d="M799 1249H225V1434H799V1249Z"/><glyph unicode="°" horiz-adv-x="995" d="M903 1053Q903 966 872 892T787 762T658 676T498 645Q412 645 338 676T210 762T124 891T92 1053Q92 1137 123 1210T209 1338T338 1424T498 1456Q584 1456 658 1425T786 1339T872 1211T903 1053ZM719 1053Q719 1098 702 1138T656 1209T586 1256T498 1274Q452 1274 412 1257T341 1209T294 1139T276 1053Q276 1005 293 964T341 893T411 845T498 827Q545 827 585 844T655 892T702 964T719 1053Z"/><glyph unicode="±" horiz-adv-x="1536" d="M672 352V764H200V936H672V1352H864V936H1340V764H864V352H672ZM204 24V216H1336V24H204Z"/><glyph unicode="²" horiz-adv-x="896" d="M56 628V768L400 1108Q472 1176 512 1230T552 1352Q552 1404 506 1436T400 1468Q336 1468 276 1430T172 1348L64 1456Q124 1520 220 1570T428 1620Q568 1620 658 1540T748 1344Q748 1236 658 1134T492 976L268 788H776V628H56Z"/><glyph unicode="³" horiz-adv-x="896" d="M48 732L152 864Q216 816 284 796T424 776Q524 776 572 818T620 928Q620 1004 552 1040T384 1076H312V1204H372Q472 1204 530 1242T588 1336Q588 1400 536 1428T412 1456Q332 1456 272 1430T176 1384L88 1516Q176 1572 268 1596T448 1620Q596 1620 684 1556T772 1376Q772 1276 710 1222T548 1148Q664 1136 738 1080T812 904Q812 764 700 688T432 612Q300 612 206 646T48 732Z"/><glyph unicode="´" horiz-adv-x="1024" d="M819 1546L481 1219H313L532 1546H819Z"/><glyph unicode="µ" horiz-adv-x="1408" d="M252 -424Q196 -424 168 -392T140 -280Q140 -200 144 -106T156 100Q164 200 168 256T172 328Q176 348 176 356T176 368V1176H368V320Q368 228 450 176T628 124Q760 124 858 190T1008 380V1176H1200V308L1220 0H1056L1020 176Q952 68 836 14T572 -40Q520 -40 444 -14T324 60Q324 -28 352 -112T380 -264Q380 -424 252 -424Z"/><glyph unicode="¶" horiz-adv-x="1483" d="M1300 -379H1098V1237H936V-379H733V535H561Q466 535 382 564T234 651T133 793T96 985Q96 1093 133 1176T234 1317T382 1404T561 1434H1300V-379Z"/><glyph unicode="·" horiz-adv-x="520" d="M422 752Q422 719 409 690T374 638T323 603T260 590Q227 590 198 603T146 638T111 689T98 752Q98 785 111 814T146 866T197 902T260 915Q293 915 322 902T374 867T409 815T422 752Z"/><glyph unicode="¸" horiz-adv-x="1024" d="M768 -217Q768 -265 748 -299T694 -354T615 -385T518 -395Q444 -395 383 -376T266 -322L311 -254Q352 -277 398 -290T492 -303Q560 -303 591 -281T623 -223Q623 -192 605 -175T557 -158Q529 -158 511 -166T475 -188L401 -160L438 25H543L522 -92Q541 -84 563 -79T621 -74Q647 -74 673 -82T720 -107T754 -152T768 -217Z"/><glyph unicode="¹" horiz-adv-x="768" d="M324 628V1424L144 1384V1528L392 1636H508V628H324Z"/><glyph unicode="º" horiz-adv-x="991" d="M883 1010Q883 902 853 817T770 674T645 584T489 553Q408 553 339 585T218 677T138 819T109 1004Q109 1110 138 1194T220 1336T342 1425T496 1456Q579 1456 650 1425T772 1335T853 1194T883 1010ZM705 1004Q705 1069 690 1121T647 1211T579 1268T489 1288Q441 1288 404 1268T340 1212T301 1125T287 1010Q287 940 302 886T345 796T411 740T498 721Q545 721 583 743T648 804T690 893T705 1004Z"/><glyph unicode="»" horiz-adv-x="1204" d="M1143 539L764 0H537L905 537L537 1075H764L1143 539ZM688 539L309 0H82L451 537L82 1075H309L688 539Z"/><glyph unicode="¼" horiz-adv-x="1920" d="M368 0L1340 1524H1520L548 0H368ZM292 628V1424L112 1384V1528L360 1636H476V628H292ZM1540 0V220H1060V360L1512 980H1724V376H1844V220H1724V0H1540ZM1260 368H1540V768L1260 368Z"/><glyph unicode="½" horiz-adv-x="1920" d="M276 0L1248 1524H1428L456 0H276ZM268 628V1424L88 1384V1528L336 1636H452V628H268ZM1136 0V140L1480 480Q1552 548 1592 602T1632 724Q1632 776 1586 808T1480 840Q1416 840 1356 802T1252 720L1144 828Q1204 892 1300 942T1508 992Q1648 992 1738 912T1828 716Q1828 608 1738 506T1572 348L1348 160H1856V0H1136Z"/><glyph unicode="¾" horiz-adv-x="1920" d="M440 0L1412 1524H1592L620 0H440ZM48 732L152 864Q216 816 284 796T424 776Q524 776 572 818T620 928Q620 1004 552 1040T384 1076H312V1204H372Q472 1204 530 1242T588 1336Q588 1400 536 1428T412 1456Q332 1456 272 1430T176 1384L88 1516Q176 1572 268 1596T448 1620Q596 1620 684 1556T772 1376Q772 1276 710 1222T548 1148Q664 1136 738 1080T812 904Q812 764 700 688T432 612Q300 612 206 646T48 732ZM1564 0V220H1084V360L1536 980H1748V376H1868V220H1748V0H1564ZM1284 368H1564V768L1284 368Z"/><glyph unicode="¿" horiz-adv-x="1169" d="M795 1303Q795 1271 783 1243T749 1194T700 1160T641 1147Q609 1147 581 1159T532 1193T499 1243T487 1303Q487 1334 499 1362T532 1411T581 1444T641 1456Q672 1456 700 1444T749 1411T782 1362T795 1303ZM1100 188Q1056 144 1003 106T886 39T752 -6T600 -23Q491 -23 401 1T247 74T147 193T111 358Q111 433 128 488T178 588T261 668T375 741Q425 769 455 794T501 849T523 920T528 1020H752Q752 930 742 867T702 754T620 662T481 573Q442 552 414 532T367 488T339 436T330 371Q330 284 401 237T606 190Q663 190 711 201T803 233T885 283T963 350L1100 188Z"/><glyph unicode="À" horiz-adv-x="1458" d="M1362 0H1133L1012 340H438L319 0H96L612 1434H840L1362 0ZM946 532L831 862Q818 901 802 948T771 1042T742 1129T723 1192Q717 1169 705 1129T679 1043T648 948T618 860L504 532H946ZM850 1526H682L344 1853H631L850 1526Z"/><glyph unicode="Á" horiz-adv-x="1458" d="M1362 0H1133L1012 340H438L319 0H96L612 1434H840L1362 0ZM946 532L831 862Q818 901 802 948T771 1042T742 1129T723 1192Q717 1169 705 1129T679 1043T648 948T618 860L504 532H946ZM1102 1853L764 1526H596L815 1853H1102Z"/><glyph unicode="Â" horiz-adv-x="1458" d="M1362 0H1133L1012 340H438L319 0H96L612 1434H840L1362 0ZM946 532L831 862Q818 901 802 948T771 1042T742 1129T723 1192Q717 1169 705 1129T679 1043T648 948T618 860L504 532H946ZM1087 1504H918L723 1684L528 1504H363L602 1831H848L1087 1504Z"/><glyph unicode="Ã" horiz-adv-x="1458" d="M1362 0H1133L1012 340H438L319 0H96L612 1434H840L1362 0ZM946 532L831 862Q818 901 802 948T771 1042T742 1129T723 1192Q717 1169 705 1129T679 1043T648 948T618 860L504 532H946ZM1094 1798Q1094 1730 1078 1678T1033 1590T965 1537T879 1519Q850 1519 824 1524T769 1540T709 1568T637 1610Q616 1622 595 1630T557 1638Q523 1638 505 1614T478 1526H332Q332 1594 348 1646T393 1733T461 1786T547 1804Q576 1804 602 1799T657 1784T717 1756T789 1714Q811 1702 831 1694T869 1685Q903 1685 922 1710T949 1798H1094Z"/><glyph unicode="Ä" horiz-adv-x="1458" d="M1362 0H1133L1012 340H438L319 0H96L612 1434H840L1362 0ZM946 532L831 862Q818 901 802 948T771 1042T742 1129T723 1192Q717 1169 705 1129T679 1043T648 948T618 860L504 532H946ZM1059 1663Q1059 1635 1048 1610T1018 1567T974 1537T922 1526Q893 1526 868 1537T824 1566T793 1610T782 1663Q782 1691 793 1716T823 1761T868 1791T922 1802Q949 1802 974 1791T1018 1761T1048 1717T1059 1663ZM660 1663Q660 1635 649 1610T619 1567T575 1537T522 1526Q494 1526 469 1537T424 1566T394 1610T383 1663Q383 1691 394 1716T424 1761T468 1791T522 1802Q550 1802 575 1791T619 1761T649 1717T660 1663Z"/><glyph unicode="Å" horiz-adv-x="1458" d="M1362 0H1126L1008 334H444L328 0H96L575 1331Q526 1365 497 1420T467 1544Q467 1599 486 1646T540 1728T622 1782T725 1802Q780 1802 827 1783T909 1729T963 1647T983 1544Q983 1476 955 1422T877 1333L1362 0ZM850 1544Q850 1571 841 1594T815 1633T775 1659T725 1669Q698 1669 675 1660T636 1634T610 1594T600 1544Q600 1517 609 1495T635 1455T675 1429T725 1419Q752 1419 775 1428T814 1455T840 1494T850 1544ZM934 541L821 862Q810 894 796 935T768 1018T743 1094T725 1149Q719 1129 708 1094T684 1020T658 940T633 870L518 541H934Z"/><glyph unicode="Æ" horiz-adv-x="2085" d="M1966 0H1020V336H489L268 0H29L991 1434H1935V1225H1227V870H1638V662H1227V209H1966V0ZM1024 1157Q1015 1142 997 1113T958 1050T914 980T874 918L621 535H1020V879Q1020 910 1020 949T1022 1028T1023 1101T1024 1157Z"/><glyph unicode="Ç" horiz-adv-x="1341" d="M1219 252Q1143 122 1021 52T739 -23L727 -92Q746 -84 768 -79T825 -74Q851 -74 877 -82T925 -107T959 -152T973 -217Q973 -265 953 -299T899 -354T820 -385T723 -395Q649 -395 588 -376T471 -322L516 -254Q556 -277 602 -290T696 -303Q764 -303 795 -281T827 -223Q827 -192 809 -175T762 -158Q734 -158 716 -166T680 -188L606 -160L635 -16Q516 1 421 61T258 218T155 441T119 717Q119 880 161 1015T283 1249T474 1401T725 1456Q900 1456 1019 1387T1212 1188L1022 1069Q994 1113 965 1145T901 1199T823 1230T725 1241Q631 1241 559 1205T439 1100T365 934T340 717Q340 596 365 499T438 334T559 230T725 193Q837 193 911 238T1040 371L1219 252Z"/><glyph unicode="È" horiz-adv-x="1260" d="M1141 0H186V1434H1110V1225H401V870H813V662H401V209H1141V0ZM766 1526H598L260 1853H547L766 1526Z"/><glyph unicode="É" horiz-adv-x="1260" d="M1141 0H186V1434H1110V1225H401V870H813V662H401V209H1141V0ZM1018 1853L680 1526H512L731 1853H1018Z"/><glyph unicode="Ê" horiz-adv-x="1260" d="M1141 0H186V1434H1110V1225H401V870H813V662H401V209H1141V0ZM999 1526H830L635 1706L440 1526H275L514 1853H760L999 1526Z"/><glyph unicode="Ë" horiz-adv-x="1260" d="M1141 0H186V1434H1110V1225H401V870H813V662H401V209H1141V0ZM975 1663Q975 1635 964 1610T934 1567T890 1537T838 1526Q809 1526 784 1537T740 1566T709 1610T698 1663Q698 1691 709 1716T739 1761T784 1791T838 1802Q865 1802 890 1791T934 1761T964 1717T975 1663ZM576 1663Q576 1635 565 1610T535 1567T491 1537T438 1526Q410 1526 385 1537T340 1566T310 1610T299 1663Q299 1691 310 1716T340 1761T384 1791T438 1802Q466 1802 491 1791T535 1761T565 1717T576 1663Z"/><glyph unicode="Ì" horiz-adv-x="608" d="M412 0H197V1434H412V0ZM415 1526H247L-91 1853H196L415 1526Z"/><glyph unicode="Í" horiz-adv-x="608" d="M412 0H197V1434H412V0ZM707 1853L369 1526H201L420 1853H707Z"/><glyph unicode="Î" horiz-adv-x="608" d="M412 0H197V1434H412V0ZM668 1512H499L304 1692L109 1512H-56L183 1839H429L668 1512Z"/><glyph unicode="Ï" horiz-adv-x="608" d="M412 0H197V1434H412V0ZM644 1663Q644 1635 633 1610T603 1567T559 1537T507 1526Q478 1526 453 1537T409 1566T378 1610T367 1663Q367 1691 378 1716T408 1761T453 1791T507 1802Q534 1802 559 1791T603 1761T633 1717T644 1663ZM245 1663Q245 1635 234 1610T204 1567T160 1537T107 1526Q79 1526 54 1537T9 1566T-21 1610T-32 1663Q-32 1691 -21 1716T9 1761T53 1791T107 1802Q135 1802 160 1791T204 1761T234 1717T245 1663Z"/><glyph unicode="Ð" horiz-adv-x="1421" d="M1307 717Q1307 527 1251 392T1098 169T876 41T608 0H217V647H82V852H217V1434H608Q752 1434 879 1393T1102 1265T1252 1043T1307 717ZM1087 717Q1087 830 1060 923T975 1083T826 1186T608 1223H426V852H686V647H426V211H608Q735 211 826 247T975 351T1060 511T1087 717Z"/><glyph unicode="Ñ" horiz-adv-x="1462" d="M1276 0H1071L500 899Q487 919 472 943T442 993T415 1039T393 1075Q393 1055 393 1012T394 919T394 821T395 743V0H186V1434H406L950 559Q964 537 981 508T1016 449T1047 395T1069 356Q1069 376 1069 420T1068 515T1068 615T1067 694V1434H1276V0ZM1126 1802Q1126 1734 1110 1682T1065 1594T997 1541T911 1523Q882 1523 856 1528T801 1544T741 1572T669 1614Q648 1626 627 1634T589 1642Q555 1642 537 1618T510 1530H364Q364 1598 380 1650T425 1737T493 1790T579 1808Q608 1808 634 1803T689 1788T749 1760T821 1718Q843 1706 863 1698T901 1689Q935 1689 954 1714T981 1802H1126Z"/><glyph unicode="Ò" horiz-adv-x="1456" d="M1339 719Q1339 551 1295 415T1169 181T975 30T725 -23Q589 -23 477 29T285 178T161 411T117 715Q117 882 161 1019T287 1253T480 1403T729 1456Q866 1456 978 1404T1171 1255T1295 1022T1339 719ZM1120 715Q1120 837 1090 934T1007 1100T882 1206T723 1243Q638 1243 567 1207T445 1103T365 938T336 719Q336 597 365 499T447 333T572 227T731 190Q816 190 887 226T1010 330T1091 495T1120 715ZM846 1526H678L340 1853H627L846 1526Z"/><glyph unicode="Ó" horiz-adv-x="1456" d="M1339 719Q1339 551 1295 415T1169 181T975 30T725 -23Q589 -23 477 29T285 178T161 411T117 715Q117 882 161 1019T287 1253T480 1403T729 1456Q866 1456 978 1404T1171 1255T1295 1022T1339 719ZM1120 715Q1120 837 1090 934T1007 1100T882 1206T723 1243Q638 1243 567 1207T445 1103T365 938T336 719Q336 597 365 499T447 333T572 227T731 190Q816 190 887 226T1010 330T1091 495T1120 715ZM1098 1853L760 1526H592L811 1853H1098Z"/><glyph unicode="Ô" horiz-adv-x="1456" d="M1339 719Q1339 551 1295 415T1169 181T975 30T725 -23Q589 -23 477 29T285 178T161 411T117 715Q117 882 161 1019T287 1253T480 1403T729 1456Q866 1456 978 1404T1171 1255T1295 1022T1339 719ZM1120 715Q1120 837 1090 934T1007 1100T882 1206T723 1243Q638 1243 567 1207T445 1103T365 938T336 719Q336 597 365 499T447 333T572 227T731 190Q816 190 887 226T1010 330T1091 495T1120 715ZM1079 1516H910L715 1696L520 1516H355L594 1843H840L1079 1516Z"/><glyph unicode="Õ" horiz-adv-x="1456" d="M1339 719Q1339 551 1295 415T1169 181T975 30T725 -23Q589 -23 477 29T285 178T161 411T117 715Q117 882 161 1019T287 1253T480 1403T729 1456Q866 1456 978 1404T1171 1255T1295 1022T1339 719ZM1120 715Q1120 837 1090 934T1007 1100T882 1206T723 1243Q638 1243 567 1207T445 1103T365 938T336 719Q336 597 365 499T447 333T572 227T731 190Q816 190 887 226T1010 330T1091 495T1120 715ZM1087 1798Q1087 1730 1071 1678T1026 1590T958 1537T872 1519Q843 1519 817 1524T762 1540T702 1568T630 1610Q609 1622 588 1630T550 1638Q516 1638 498 1614T471 1526H325Q325 1594 341 1646T386 1733T454 1786T540 1804Q569 1804 595 1799T650 1784T710 1756T782 1714Q804 1702 824 1694T862 1685Q896 1685 915 1710T942 1798H1087Z"/><glyph unicode="Ö" horiz-adv-x="1456" d="M1339 719Q1339 551 1295 415T1169 181T975 30T725 -23Q589 -23 477 29T285 178T161 411T117 715Q117 882 161 1019T287 1253T480 1403T729 1456Q866 1456 978 1404T1171 1255T1295 1022T1339 719ZM1120 715Q1120 837 1090 934T1007 1100T882 1206T723 1243Q638 1243 567 1207T445 1103T365 938T336 719Q336 597 365 499T447 333T572 227T731 190Q816 190 887 226T1010 330T1091 495T1120 715ZM1055 1663Q1055 1635 1044 1610T1014 1567T970 1537T918 1526Q889 1526 864 1537T820 1566T789 1610T778 1663Q778 1691 789 1716T819 1761T864 1791T918 1802Q945 1802 970 1791T1014 1761T1044 1717T1055 1663ZM656 1663Q656 1635 645 1610T615 1567T571 1537T518 1526Q490 1526 465 1537T420 1566T390 1610T379 1663Q379 1691 390 1716T420 1761T464 1791T518 1802Q546 1802 571 1791T615 1761T645 1717T656 1663Z"/><glyph unicode="×" horiz-adv-x="1536" d="M472 376L352 492L648 792L352 1088L480 1212L768 912L1068 1204L1184 1088L892 792L1184 492L1068 376L768 668L472 376Z"/><glyph unicode="Ø" horiz-adv-x="1456" d="M1333 717Q1333 554 1291 418T1169 184T978 32T725 -23Q604 -23 498 20L442 -102H242L342 119Q236 218 178 371T119 717Q119 880 161 1015T283 1249T474 1401T725 1456Q839 1456 934 1419L987 1536H1188L1092 1327Q1149 1279 1194 1215T1270 1073T1317 906T1333 717ZM850 1233Q824 1241 794 1245T725 1249Q631 1249 559 1211T438 1104T364 936T338 717Q338 584 361 489T436 326L850 1233ZM1114 717Q1114 853 1087 955T1001 1126L582 207Q611 194 645 189T725 184Q819 184 892 222T1014 329T1088 497T1114 717Z"/><glyph unicode="Ù" horiz-adv-x="1442" d="M1266 598Q1266 448 1230 332T1124 137T951 18T715 -23Q582 -23 481 19T313 141T211 338T176 602V1434H391V608Q391 404 474 299T719 193Q888 193 969 295T1051 594V1434H1266V598ZM850 1495H682L344 1822H631L850 1495Z"/><glyph unicode="Ú" horiz-adv-x="1442" d="M1266 598Q1266 448 1230 332T1124 137T951 18T715 -23Q582 -23 481 19T313 141T211 338T176 602V1434H391V608Q391 404 474 299T719 193Q888 193 969 295T1051 594V1434H1266V598ZM1102 1822L764 1495H596L815 1822H1102Z"/><glyph unicode="Û" horiz-adv-x="1442" d="M1266 598Q1266 448 1230 332T1124 137T951 18T715 -23Q582 -23 481 19T313 141T211 338T176 602V1434H391V608Q391 404 474 299T719 193Q888 193 969 295T1051 594V1434H1266V598ZM1083 1526H914L719 1706L524 1526H359L598 1853H844L1083 1526Z"/><glyph unicode="Ü" horiz-adv-x="1442" d="M1266 598Q1266 448 1230 332T1124 137T951 18T715 -23Q582 -23 481 19T313 141T211 338T176 602V1434H391V608Q391 404 474 299T719 193Q888 193 969 295T1051 594V1434H1266V598ZM1059 1663Q1059 1635 1048 1610T1018 1567T974 1537T922 1526Q893 1526 868 1537T824 1566T793 1610T782 1663Q782 1691 793 1716T823 1761T868 1791T922 1802Q949 1802 974 1791T1018 1761T1048 1717T1059 1663ZM660 1663Q660 1635 649 1610T619 1567T575 1537T522 1526Q494 1526 469 1537T424 1566T394 1610T383 1663Q383 1691 394 1716T424 1761T468 1791T522 1802Q550 1802 575 1791T619 1761T649 1717T660 1663Z"/><glyph unicode="Ý" horiz-adv-x="1411" d="M1327 1434L813 567V0H598V567L84 1434H336L559 1038Q577 1005 599 964T642 883T680 809T707 754Q716 774 733 807T770 880T813 960T854 1036L1079 1434H1327ZM1087 1822L749 1495H581L800 1822H1087Z"/><glyph unicode="Þ" horiz-adv-x="1337" d="M1247 745Q1247 635 1212 551T1114 410T964 324T772 295H401V0H186V1434H401V1194H786Q885 1194 969 1166T1115 1081T1212 941T1247 745ZM1028 745Q1028 804 1011 849T961 925T882 971T780 987H401V502H780Q904 502 966 566T1028 745Z"/><glyph unicode="ß" horiz-adv-x="1190" d="M1085 463Q1085 340 1049 253T945 109T779 26T557 0H532V193H569Q638 193 694 207T789 253T850 333T872 451Q872 518 847 568T779 650T678 699T555 715H532V905H563Q608 905 644 918T707 956T747 1017T762 1102Q762 1190 709 1241T561 1292Q467 1292 417 1235T367 1075V-283L156 -395V1067Q156 1176 185 1255T269 1386T398 1462T565 1487Q652 1487 727 1461T857 1386T943 1267T975 1108Q975 995 926 924T793 823Q844 812 896 788T990 720T1058 614T1085 463Z"/><glyph unicode="à" horiz-adv-x="1126" d="M979 0H772V106Q716 51 641 14T477 -23Q412 -23 346 -4T226 59T138 172T104 340Q104 430 136 495T226 604T362 667T532 688Q682 688 772 647V727Q772 815 720 862T569 909Q486 909 419 893T289 842L207 1001Q284 1049 372 1073T575 1098Q665 1098 739 1076T867 1009T949 896T979 737V0ZM772 305V459Q729 480 671 493T526 506Q424 506 365 463T305 346Q305 266 356 217T512 168Q554 168 593 180T666 211T727 255T772 305ZM956 1219H788L450 1546H737L956 1219Z"/><glyph unicode="á" horiz-adv-x="1126" d="M979 0H772V106Q716 51 641 14T477 -23Q412 -23 346 -4T226 59T138 172T104 340Q104 430 136 495T226 604T362 667T532 688Q682 688 772 647V727Q772 815 720 862T569 909Q486 909 419 893T289 842L207 1001Q284 1049 372 1073T575 1098Q665 1098 739 1076T867 1009T949 896T979 737V0ZM772 305V459Q729 480 671 493T526 506Q424 506 365 463T305 346Q305 266 356 217T512 168Q554 168 593 180T666 211T727 255T772 305ZM950 1546L612 1219H444L663 1546H950Z"/><glyph unicode="â" horiz-adv-x="1126" d="M979 0H772V106Q716 51 641 14T477 -23Q412 -23 346 -4T226 59T138 172T104 340Q104 430 136 495T226 604T362 667T532 688Q682 688 772 647V727Q772 815 720 862T569 909Q486 909 419 893T289 842L207 1001Q284 1049 372 1073T575 1098Q665 1098 739 1076T867 1009T949 896T979 737V0ZM772 305V459Q729 480 671 493T526 506Q424 506 365 463T305 346Q305 266 356 217T512 168Q554 168 593 180T666 211T727 255T772 305ZM931 1466H762L567 1646L372 1466H207L446 1793H692L931 1466Z"/><glyph unicode="ã" horiz-adv-x="1126" d="M979 0H772V106Q716 51 641 14T477 -23Q412 -23 346 -4T226 59T138 172T104 340Q104 430 136 495T226 604T362 667T532 688Q682 688 772 647V727Q772 815 720 862T569 909Q486 909 419 893T289 842L207 1001Q284 1049 372 1073T575 1098Q665 1098 739 1076T867 1009T949 896T979 737V0ZM772 305V459Q729 480 671 493T526 506Q424 506 365 463T305 346Q305 266 356 217T512 168Q554 168 593 180T666 211T727 255T772 305ZM940 1491Q940 1423 924 1371T879 1283T811 1230T725 1212Q696 1212 670 1217T615 1233T555 1261T483 1303Q462 1315 441 1323T403 1331Q369 1331 351 1307T324 1219H178Q178 1287 194 1339T239 1426T307 1479T393 1497Q422 1497 448 1492T503 1477T563 1449T635 1407Q657 1395 677 1387T715 1378Q749 1378 768 1403T795 1491H940Z"/><glyph unicode="ä" horiz-adv-x="1126" d="M979 0H772V106Q716 51 641 14T477 -23Q412 -23 346 -4T226 59T138 172T104 340Q104 430 136 495T226 604T362 667T532 688Q682 688 772 647V727Q772 815 720 862T569 909Q486 909 419 893T289 842L207 1001Q284 1049 372 1073T575 1098Q665 1098 739 1076T867 1009T949 896T979 737V0ZM772 305V459Q729 480 671 493T526 506Q424 506 365 463T305 346Q305 266 356 217T512 168Q554 168 593 180T666 211T727 255T772 305ZM907 1603Q907 1575 896 1550T866 1507T822 1477T770 1466Q741 1466 716 1477T672 1506T641 1550T630 1603Q630 1631 641 1656T671 1701T716 1731T770 1742Q797 1742 822 1731T866 1701T896 1657T907 1603ZM508 1603Q508 1575 497 1550T467 1507T423 1477T370 1466Q342 1466 317 1477T272 1506T242 1550T231 1603Q231 1631 242 1656T272 1701T316 1731T370 1742Q398 1742 423 1731T467 1701T497 1657T508 1603Z"/><glyph unicode="å" horiz-adv-x="1126" d="M979 0H772V106Q716 51 641 14T477 -23Q412 -23 346 -4T226 59T138 172T104 340Q104 430 136 495T226 604T362 667T532 688Q682 688 772 647V727Q772 815 720 862T569 909Q486 909 419 893T289 842L207 1001Q284 1049 372 1073T575 1098Q665 1098 739 1076T867 1009T949 896T979 737V0ZM772 305V459Q729 480 671 493T526 506Q424 506 365 463T305 346Q305 266 356 217T512 168Q554 168 593 180T666 211T727 255T772 305ZM827 1475Q827 1419 808 1373T754 1292T672 1238T569 1219Q514 1219 467 1238T385 1291T331 1372T311 1475Q311 1530 330 1577T384 1659T466 1713T569 1733Q624 1733 671 1714T753 1660T807 1578T827 1475ZM694 1475Q694 1502 685 1525T659 1566T619 1592T569 1602Q542 1602 519 1593T480 1566T454 1526T444 1475Q444 1447 453 1424T479 1384T519 1358T569 1348Q596 1348 619 1357T658 1384T684 1424T694 1475Z"/><glyph unicode="æ" horiz-adv-x="1741" d="M1626 557Q1626 528 1624 503T1620 461H963Q967 389 987 335T1039 245T1113 192T1204 174Q1238 174 1265 179T1316 196T1362 223T1411 260L1540 121Q1505 86 1470 60T1393 15T1303 -13T1192 -23Q1087 -23 998 23T848 160Q788 76 694 27T481 -23Q416 -23 350 -4T228 59T139 172T104 340Q104 429 137 495T229 604T366 669T537 690Q609 690 660 679T756 647V723Q756 808 711 854T569 901Q489 901 423 885T295 834L211 997Q289 1045 376 1071T575 1098Q644 1098 695 1087T783 1055T845 1007T889 948Q917 982 948 1009T1016 1056T1099 1087T1198 1098Q1306 1098 1386 1054T1520 936T1600 763T1626 557ZM1417 641Q1414 695 1401 742T1362 825T1293 882T1188 903Q1136 903 1097 885T1030 832T986 749T965 641H1417ZM756 307V457Q735 467 713 476T663 491T603 500T528 504Q428 504 371 461T313 346Q313 268 362 221T514 174Q556 174 592 185T659 216T714 259T756 307Z"/><glyph unicode="ç" horiz-adv-x="1069" d="M956 915L831 766Q765 834 704 865T569 897Q512 897 466 872T386 801T335 689T317 541Q317 462 334 396T383 281T464 205T575 178Q613 178 644 186T703 211T759 253T819 311L954 178Q923 139 888 104T807 41T707 -4T582 -23L569 -92Q588 -84 611 -79T668 -74Q694 -74 720 -82T767 -107T801 -152T815 -217Q815 -265 795 -299T741 -354T662 -385T565 -395Q491 -395 430 -376T313 -322L358 -254Q399 -277 445 -290T539 -303Q607 -303 638 -281T670 -223Q670 -192 652 -175T604 -158Q576 -158 558 -166T522 -188L449 -160L477 -12Q396 5 328 51T210 167T132 331T104 535Q104 668 140 773T241 950T391 1060T575 1098Q694 1098 787 1052T956 915Z"/><glyph unicode="è" horiz-adv-x="1135" d="M1028 559Q1028 530 1026 505T1022 463H311Q320 385 345 330T406 238T487 185T582 168Q650 168 705 191T815 254L940 119Q869 51 781 14T569 -23Q474 -23 390 14T242 123T141 299T104 537Q104 673 138 778T235 954T384 1061T575 1098Q690 1098 775 1055T916 938T1000 766T1028 559ZM815 637Q811 692 796 741T750 827T673 885T561 907Q455 907 392 837T315 637H815ZM952 1219H784L446 1546H733L952 1219Z"/><glyph unicode="é" horiz-adv-x="1135" d="M1028 559Q1028 530 1026 505T1022 463H311Q320 385 345 330T406 238T487 185T582 168Q650 168 705 191T815 254L940 119Q869 51 781 14T569 -23Q474 -23 390 14T242 123T141 299T104 537Q104 673 138 778T235 954T384 1061T575 1098Q690 1098 775 1055T916 938T1000 766T1028 559ZM815 637Q811 692 796 741T750 827T673 885T561 907Q455 907 392 837T315 637H815ZM946 1546L608 1219H440L659 1546H946Z"/><glyph unicode="ê" horiz-adv-x="1135" d="M1028 559Q1028 530 1026 505T1022 463H311Q320 385 345 330T406 238T487 185T582 168Q650 168 705 191T815 254L940 119Q869 51 781 14T569 -23Q474 -23 390 14T242 123T141 299T104 537Q104 673 138 778T235 954T384 1061T575 1098Q690 1098 775 1055T916 938T1000 766T1028 559ZM815 637Q811 692 796 741T750 827T673 885T561 907Q455 907 392 837T315 637H815ZM927 1456H758L563 1636L368 1456H203L442 1783H688L927 1456Z"/><glyph unicode="ë" horiz-adv-x="1135" d="M1028 559Q1028 530 1026 505T1022 463H311Q320 385 345 330T406 238T487 185T582 168Q650 168 705 191T815 254L940 119Q869 51 781 14T569 -23Q474 -23 390 14T242 123T141 299T104 537Q104 673 138 778T235 954T384 1061T575 1098Q690 1098 775 1055T916 938T1000 766T1028 559ZM815 637Q811 692 796 741T750 827T673 885T561 907Q455 907 392 837T315 637H815ZM903 1603Q903 1575 892 1550T862 1507T818 1477T766 1466Q737 1466 712 1477T668 1506T637 1550T626 1603Q626 1631 637 1656T667 1701T712 1731T766 1742Q793 1742 818 1731T862 1701T892 1657T903 1603ZM504 1603Q504 1575 493 1550T463 1507T419 1477T366 1466Q338 1466 313 1477T268 1506T238 1550T227 1603Q227 1631 238 1656T268 1701T312 1731T366 1742Q394 1742 419 1731T463 1701T493 1657T504 1603Z"/><glyph unicode="ì" horiz-adv-x="543" d="M375 0H164V1075H375V0ZM382 1219H214L-124 1546H163L382 1219Z"/><glyph unicode="í" horiz-adv-x="543" d="M375 0H164V1075H375V0ZM677 1546L339 1219H171L390 1546H677Z"/><glyph unicode="î" horiz-adv-x="543" d="M375 0H164V1075H375V0ZM633 1189H464L269 1369L74 1189H-91L148 1516H394L633 1189Z"/><glyph unicode="ï" horiz-adv-x="543" d="M375 0H164V1075H375V0ZM607 1337Q607 1309 596 1284T566 1241T522 1211T470 1200Q441 1200 416 1211T372 1240T341 1284T330 1337Q330 1365 341 1390T371 1435T416 1465T470 1476Q497 1476 522 1465T566 1435T596 1391T607 1337ZM208 1337Q208 1309 197 1284T167 1241T123 1211T70 1200Q42 1200 17 1211T-28 1240T-58 1284T-69 1337Q-69 1365 -58 1390T-28 1435T16 1465T70 1476Q98 1476 123 1465T167 1435T197 1391T208 1337Z"/><glyph unicode="ð" horiz-adv-x="1167" d="M1063 596Q1063 430 1026 313T924 121T770 12T578 -23Q476 -23 390 12T240 114T140 274T104 487Q104 611 139 703T235 856T375 948T541 979Q634 979 717 946T856 844Q834 937 790 1017T674 1157L571 1051L451 1157L530 1241Q455 1276 356 1282V1456Q444 1451 520 1431T659 1376L735 1456L856 1350L795 1284Q866 1220 917 1140T1000 969T1048 784T1063 596ZM850 487Q850 565 829 623T772 721T685 779T575 799Q521 799 474 780T392 722T337 626T317 494Q317 421 336 363T391 263T476 200T586 178Q646 178 694 201T777 266T831 364T850 487Z"/><glyph unicode="ñ" horiz-adv-x="1167" d="M1020 0H809V608Q809 689 794 745T751 837T681 887T588 903Q481 903 424 832T367 629V0H156V1075H367V973Q387 1002 416 1025T480 1065T555 1089T637 1098Q826 1098 923 977T1020 616V0ZM952 1491Q952 1423 936 1371T891 1283T823 1230T737 1212Q708 1212 682 1217T627 1233T567 1261T495 1303Q474 1315 453 1323T415 1331Q381 1331 363 1307T336 1219H190Q190 1287 206 1339T251 1426T319 1479T405 1497Q434 1497 460 1492T515 1477T575 1449T647 1407Q669 1395 689 1387T727 1378Q761 1378 780 1403T807 1491H952Z"/><glyph unicode="ò" horiz-adv-x="1167" d="M1063 543Q1063 409 1026 304T924 126T770 15T578 -23Q476 -23 390 17T240 130T140 307T104 537Q104 669 141 773T242 949T394 1060T584 1098Q687 1098 774 1059T926 947T1026 772T1063 543ZM850 537Q850 619 831 685T777 799T690 871T575 897Q515 897 468 872T387 800T335 688T317 543Q317 454 336 386T391 272T476 202T586 178Q646 178 694 206T777 283T831 397T850 537ZM964 1219H796L458 1546H745L964 1219Z"/><glyph unicode="ó" horiz-adv-x="1167" d="M1063 543Q1063 409 1026 304T924 126T770 15T578 -23Q476 -23 390 17T240 130T140 307T104 537Q104 669 141 773T242 949T394 1060T584 1098Q687 1098 774 1059T926 947T1026 772T1063 543ZM850 537Q850 619 831 685T777 799T690 871T575 897Q515 897 468 872T387 800T335 688T317 543Q317 454 336 386T391 272T476 202T586 178Q646 178 694 206T777 283T831 397T850 537ZM958 1546L620 1219H452L671 1546H958Z"/><glyph unicode="ô" horiz-adv-x="1167" d="M1063 543Q1063 409 1026 304T924 126T770 15T578 -23Q476 -23 390 17T240 130T140 307T104 537Q104 669 141 773T242 949T394 1060T584 1098Q687 1098 774 1059T926 947T1026 772T1063 543ZM850 537Q850 619 831 685T777 799T690 871T575 897Q515 897 468 872T387 800T335 688T317 543Q317 454 336 386T391 272T476 202T586 178Q646 178 694 206T777 283T831 397T850 537ZM940 1456H771L576 1636L381 1456H216L455 1783H701L940 1456Z"/><glyph unicode="õ" horiz-adv-x="1167" d="M1063 543Q1063 409 1026 304T924 126T770 15T578 -23Q476 -23 390 17T240 130T140 307T104 537Q104 669 141 773T242 949T394 1060T584 1098Q687 1098 774 1059T926 947T1026 772T1063 543ZM850 537Q850 619 831 685T777 799T690 871T575 897Q515 897 468 872T387 800T335 688T317 543Q317 454 336 386T391 272T476 202T586 178Q646 178 694 206T777 283T831 397T850 537ZM948 1491Q948 1423 932 1371T887 1283T819 1230T733 1212Q704 1212 678 1217T623 1233T563 1261T491 1303Q470 1315 449 1323T411 1331Q377 1331 359 1307T332 1219H186Q186 1287 202 1339T247 1426T315 1479T401 1497Q430 1497 456 1492T511 1477T571 1449T643 1407Q665 1395 685 1387T723 1378Q757 1378 776 1403T803 1491H948Z"/><glyph unicode="ö" horiz-adv-x="1167" d="M1063 543Q1063 409 1026 304T924 126T770 15T578 -23Q476 -23 390 17T240 130T140 307T104 537Q104 669 141 773T242 949T394 1060T584 1098Q687 1098 774 1059T926 947T1026 772T1063 543ZM850 537Q850 619 831 685T777 799T690 871T575 897Q515 897 468 872T387 800T335 688T317 543Q317 454 336 386T391 272T476 202T586 178Q646 178 694 206T777 283T831 397T850 537ZM916 1593Q916 1565 905 1540T875 1497T831 1467T779 1456Q750 1456 725 1467T681 1496T650 1540T639 1593Q639 1621 650 1646T680 1691T725 1721T779 1732Q806 1732 831 1721T875 1691T905 1647T916 1593ZM517 1593Q517 1565 506 1540T476 1497T432 1467T379 1456Q351 1456 326 1467T281 1496T251 1540T240 1593Q240 1621 251 1646T281 1691T325 1721T379 1732Q407 1732 432 1721T476 1691T506 1647T517 1593Z"/><glyph unicode="÷" horiz-adv-x="1536" d="M208 684V896H1328V684H208ZM768 228Q704 228 656 276T608 388Q608 452 650 500T768 548Q840 548 884 500T928 388Q928 324 880 276T768 228ZM768 1028Q704 1028 656 1076T608 1188Q608 1252 650 1300T768 1348Q840 1348 884 1300T928 1188Q928 1124 880 1076T768 1028Z"/><glyph unicode="ø" horiz-adv-x="1167" d="M1063 543Q1063 409 1026 304T924 126T770 15T578 -23Q531 -23 489 -14T408 10L350 -102H162L264 104Q190 179 147 288T104 537Q104 669 141 773T242 949T394 1060T584 1098Q627 1098 668 1091T748 1069L801 1178H989L891 981Q971 909 1017 797T1063 543ZM662 897Q621 909 575 909Q513 909 465 883T383 809T333 694T315 543Q315 462 327 403T362 299L662 897ZM852 537Q852 624 837 685T797 791L492 182Q515 174 538 170T586 166Q649 166 698 195T782 274T834 392T852 537Z"/><glyph unicode="ù" horiz-adv-x="1167" d="M1012 0H801V102Q781 73 752 50T688 11T612 -14T530 -23Q342 -23 245 98T147 459V1075H358V467Q358 386 373 330T416 238T486 188T580 172Q686 172 743 243T801 446V1075H1012V0ZM966 1219H798L460 1546H747L966 1219Z"/><glyph unicode="ú" horiz-adv-x="1167" d="M1012 0H801V102Q781 73 752 50T688 11T612 -14T530 -23Q342 -23 245 98T147 459V1075H358V467Q358 386 373 330T416 238T486 188T580 172Q686 172 743 243T801 446V1075H1012V0ZM960 1546L622 1219H454L673 1546H960Z"/><glyph unicode="û" horiz-adv-x="1167" d="M1012 0H801V102Q781 73 752 50T688 11T612 -14T530 -23Q342 -23 245 98T147 459V1075H358V467Q358 386 373 330T416 238T486 188T580 172Q686 172 743 243T801 446V1075H1012V0ZM942 1219H773L578 1399L383 1219H218L457 1546H703L942 1219Z"/><glyph unicode="ü" horiz-adv-x="1167" d="M1012 0H801V102Q781 73 752 50T688 11T612 -14T530 -23Q342 -23 245 98T147 459V1075H358V467Q358 386 373 330T416 238T486 188T580 172Q686 172 743 243T801 446V1075H1012V0ZM918 1356Q918 1328 907 1303T877 1260T833 1230T781 1219Q752 1219 727 1230T683 1259T652 1303T641 1356Q641 1384 652 1409T682 1454T727 1484T781 1495Q808 1495 833 1484T877 1454T907 1410T918 1356ZM519 1356Q519 1328 508 1303T478 1260T434 1230T381 1219Q353 1219 328 1230T283 1259T253 1303T242 1356Q242 1384 253 1409T283 1454T327 1484T381 1495Q409 1495 434 1484T478 1454T508 1410T519 1356Z"/><glyph unicode="ý" horiz-adv-x="1139" d="M1071 1075L530 -379H307L463 20L68 1075H299L475 549Q487 514 501 469T529 380T553 297T569 236Q576 260 587 298T612 379T640 466T666 545L848 1075H1071ZM948 1527L610 1200H442L661 1527H948Z"/><glyph unicode="þ" horiz-adv-x="1167" d="M1059 520Q1059 382 1024 280T931 111T796 10T635 -23Q594 -23 555 -13T481 14T417 53T365 100V-287L156 -395V1384L365 1493V973Q423 1027 491 1062T645 1098Q732 1098 807 1066T939 963T1027 784T1059 520ZM848 514Q848 716 786 809T606 903Q568 903 534 892T468 861T410 817T362 766V313Q380 289 406 264T466 219T536 185T614 172Q729 172 788 257T848 514Z"/><glyph unicode="ÿ" horiz-adv-x="1139" d="M1071 1075L530 -379H307L463 20L68 1075H299L475 549Q487 514 501 469T529 380T553 297T569 236Q576 260 587 298T612 379T640 466T666 545L848 1075H1071ZM905 1593Q905 1565 894 1540T864 1497T820 1467T768 1456Q739 1456 714 1467T670 1496T639 1540T628 1593Q628 1621 639 1646T669 1691T714 1721T768 1732Q795 1732 820 1721T864 1691T894 1647T905 1593ZM506 1593Q506 1565 495 1540T465 1497T421 1467T368 1456Q340 1456 315 1467T270 1496T240 1540T229 1593Q229 1621 240 1646T270 1691T314 1721T368 1732Q396 1732 421 1721T465 1691T495 1647T506 1593Z"/><glyph unicode="ı" horiz-adv-x="543" d="M375 0H164V1075H375V0Z"/><glyph unicode="Ł" horiz-adv-x="0"/><glyph unicode="ł" horiz-adv-x="0"/><glyph unicode="Œ" horiz-adv-x="2169" d="M2050 0H1120V170Q1087 122 1042 86T946 25T838 -11T725 -23Q586 -23 474 31T283 184T162 418T119 717Q119 880 161 1015T283 1249T474 1401T725 1456Q786 1456 845 1443T956 1404T1050 1343T1120 1264V1434H2019V1225H1311V870H1722V662H1311V209H2050V0ZM1114 717Q1114 837 1089 934T1014 1099T892 1204T725 1241Q631 1241 559 1205T438 1100T364 934T338 717Q338 596 363 499T438 334T559 230T725 193Q819 193 892 229T1014 334T1088 499T1114 717Z"/><glyph unicode="œ" horiz-adv-x="1876" d="M1761 553Q1761 524 1759 501T1755 461H1049Q1057 385 1081 331T1142 242T1222 191T1315 174Q1384 174 1439 196T1546 260L1675 117Q1604 48 1516 13T1303 -23Q1250 -23 1199 -9T1100 31T1014 96T948 182Q918 134 878 96T790 32T689 -9T578 -23Q476 -23 390 17T240 130T140 307T104 537Q104 669 141 773T242 949T394 1060T584 1098Q640 1098 693 1084T794 1043T880 979T946 895Q1005 992 1099 1045T1309 1098Q1423 1098 1508 1054T1649 935T1733 761T1761 553ZM1542 641Q1539 695 1523 742T1477 825T1402 882T1294 903Q1189 903 1129 836T1051 641H1542ZM850 537Q850 619 831 685T777 799T690 871T575 897Q515 897 468 872T387 800T335 688T317 543Q317 454 336 386T391 272T476 202T586 178Q646 178 694 206T777 283T831 397T850 537Z"/><glyph unicode="Š" horiz-adv-x="1282" d="M1147 412Q1147 315 1116 235T1019 98T854 9T616 -23Q538 -23 466 -7T329 40T208 113T106 209L260 358Q296 319 340 288T432 234T531 200T633 188Q785 188 857 240T930 397Q930 439 913 471T858 530T758 583T606 635Q492 669 408 703T269 783T186 895T158 1057Q158 1150 195 1224T295 1349T445 1428T631 1456Q777 1456 890 1405T1100 1262L948 1108Q880 1177 801 1211T614 1245Q551 1245 506 1231T432 1192T389 1136T375 1067Q375 1029 389 1000T438 946T534 896T688 844Q794 812 879 777T1023 692T1115 576T1147 412ZM985 1868L746 1541H500L261 1868H430L625 1688L820 1868H985Z"/><glyph unicode="š" horiz-adv-x="1022" d="M907 295Q907 206 874 145T785 47T656 -7T504 -23Q449 -23 393 -13T284 16T182 59T92 115L188 274Q264 222 345 195T502 168Q602 168 650 199T698 287Q698 318 681 341T632 385T553 425T449 467Q362 501 302 534T204 606T150 693T133 805Q133 877 160 932T236 1023T352 1079T500 1098Q602 1098 697 1065T864 979L772 817Q706 864 639 886T494 909Q416 909 381 882T346 811Q346 791 354 773T385 737T445 699T545 655Q635 620 702 588T815 517T884 424T907 295ZM1113 1546L874 1219H628L389 1546H558L753 1366L948 1546H1113Z"/><glyph unicode="Ÿ" horiz-adv-x="1411" d="M1327 1434L813 567V0H598V567L84 1434H336L559 1038Q577 1005 599 964T642 883T680 809T707 754Q716 774 733 807T770 880T813 960T854 1036L1079 1434H1327ZM1045 1643Q1045 1615 1034 1590T1004 1547T960 1517T908 1506Q879 1506 854 1517T810 1546T779 1590T768 1643Q768 1671 779 1696T809 1741T854 1771T908 1782Q935 1782 960 1771T1004 1741T1034 1697T1045 1643ZM646 1643Q646 1615 635 1590T605 1547T561 1517T508 1506Q480 1506 455 1517T410 1546T380 1590T369 1643Q369 1671 380 1696T410 1741T454 1771T508 1782Q536 1782 561 1771T605 1741T635 1697T646 1643Z"/><glyph unicode="Ž" horiz-adv-x="1360" d="M1212 0H123V209L823 1055Q840 1076 862 1102T907 1154T950 1202T985 1239Q964 1238 928 1238T851 1237T769 1236T696 1235H164V1434H1212V1225L520 379Q503 358 481 332T436 280T393 231T358 195Q380 196 416 196T493 197T574 198T647 199H1212V0ZM1036 1853L797 1526H551L312 1853H481L676 1673L871 1853H1036Z"/><glyph unicode="ž" horiz-adv-x="1079" d="M948 0H119V172L580 735Q596 755 614 777T649 820T682 860T709 891Q694 890 670 890T618 890T563 890T516 891H160V1075H948V905L498 342Q482 321 464 299T428 255T395 215T369 184Q384 185 409 185T462 185T517 185T565 184H948V0ZM909 1546L670 1219H424L185 1546H354L549 1366L744 1546H909Z"/><glyph unicode="ƒ" horiz-adv-x="834" d="M731 1251Q694 1262 659 1267T588 1272Q525 1272 497 1250T469 1167V1075H688V879H469V-283L258 -395V879H98V1075H258V1186Q258 1262 279 1314T339 1397T432 1442T551 1456Q572 1456 596 1455T644 1451T691 1444T731 1436V1251Z"/><glyph unicode="ˆ" horiz-adv-x="1024" d="M874 1219H705L510 1399L315 1219H150L389 1546H635L874 1219Z"/><glyph unicode="ˇ" horiz-adv-x="1024" d="M874 1546L635 1219H389L150 1546H319L514 1366L709 1546H874Z"/><glyph unicode="˘" horiz-adv-x="0"/><glyph unicode="˙" horiz-adv-x="0"/><glyph unicode="˚" horiz-adv-x="1024" d="M770 1475Q770 1419 751 1373T697 1292T615 1238T512 1219Q457 1219 410 1238T328 1291T274 1372T254 1475Q254 1530 273 1577T327 1659T409 1713T512 1733Q567 1733 614 1714T696 1660T750 1578T770 1475ZM637 1475Q637 1502 628 1525T602 1566T562 1592T512 1602Q485 1602 462 1593T423 1566T397 1526T387 1475Q387 1447 396 1424T422 1384T462 1358T512 1348Q539 1348 562 1357T601 1384T627 1424T637 1475Z"/><glyph unicode="˛" horiz-adv-x="0"/><glyph unicode="˜" horiz-adv-x="1024" d="M899 1491Q899 1423 883 1371T838 1283T770 1230T684 1212Q655 1212 629 1217T574 1233T514 1261T442 1303Q421 1315 400 1323T362 1331Q328 1331 310 1307T283 1219H137Q137 1287 153 1339T198 1426T266 1479T352 1497Q381 1497 407 1492T462 1477T522 1449T594 1407Q616 1395 636 1387T674 1378Q708 1378 727 1403T754 1491H899Z"/><glyph unicode="˝" horiz-adv-x="0"/><glyph unicode="̄" horiz-adv-x="1024" d="M799 1249H225V1434H799V1249Z"/><glyph unicode="Δ" horiz-adv-x="0"/><glyph unicode="Ω" horiz-adv-x="0"/><glyph unicode="μ" horiz-adv-x="1408" d="M252 -424Q196 -424 168 -392T140 -280Q140 -200 144 -106T156 100Q164 200 168 256T172 328Q176 348 176 356T176 368V1176H368V320Q368 228 450 176T628 124Q760 124 858 190T1008 380V1176H1200V308L1220 0H1056L1020 176Q952 68 836 14T572 -40Q520 -40 444 -14T324 60Q324 -28 352 -112T380 -264Q380 -424 252 -424Z"/><glyph unicode="π" horiz-adv-x="0"/><glyph unicode="–" horiz-adv-x="942" d="M829 651H113V848H829V651Z"/><glyph unicode="—" horiz-adv-x="1270" d="M1157 651H113V848H1157V651Z"/><glyph unicode="‘" horiz-adv-x="543" d="M410 1434L381 920H113L268 1434H410Z"/><glyph unicode="’" horiz-adv-x="543" d="M430 1434L274 920H133L162 1434H430Z"/><glyph unicode="‚" horiz-adv-x="543" d="M430 285L274 -229H133L162 285H430Z"/><glyph unicode="“" horiz-adv-x="1024" d="M891 1434L862 920H594L750 1434H891ZM410 1434L381 920H113L268 1434H410Z"/><glyph unicode="”" horiz-adv-x="1024" d="M911 1434L756 920H614L643 1434H911ZM430 1434L274 920H133L162 1434H430Z"/><glyph unicode="„" horiz-adv-x="1024" d="M911 285L756 -229H614L643 285H911ZM430 285L274 -229H133L162 285H430Z"/><glyph unicode="†" horiz-adv-x="1217" d="M1104 778H713V-205H504V778H113V977H504V1434H713V977H1104V778Z"/><glyph unicode="‡" horiz-adv-x="1217" d="M1104 252H713V-205H504V252H113V451H504V778H113V977H504V1434H713V977H1104V778H713V451H1104V252Z"/><glyph unicode="•" horiz-adv-x="881" d="M748 750Q748 685 724 629T659 532T561 466T440 442Q375 442 319 466T222 531T157 629T133 750Q133 814 157 871T222 970T319 1036T440 1061Q504 1061 560 1037T658 970T724 871T748 750Z"/><glyph unicode="…" horiz-adv-x="1561" d="M1462 139Q1462 106 1449 77T1414 25T1363 -10T1300 -23Q1267 -23 1238 -10T1187 25T1152 76T1139 139Q1139 172 1152 201T1186 253T1237 289T1300 303Q1333 303 1362 290T1414 254T1449 202T1462 139ZM942 139Q942 106 929 77T894 25T843 -10T780 -23Q747 -23 718 -10T666 25T631 76T618 139Q618 172 631 201T666 253T717 289T780 303Q813 303 842 290T894 254T929 202T942 139ZM422 139Q422 106 409 77T374 25T323 -10T260 -23Q227 -23 198 -10T146 25T111 76T98 139Q98 172 111 201T146 253T197 289T260 303Q293 303 322 290T374 254T409 202T422 139Z"/><glyph unicode="‰" horiz-adv-x="2810" d="M809 1012Q809 914 783 832T710 691T597 599T453 565Q375 565 310 597T199 689T128 829T102 1008Q102 1107 127 1189T199 1331T311 1423T457 1456Q538 1456 603 1423T714 1332T784 1191T809 1012ZM1544 1434L666 0H459L1337 1434H1544ZM2730 424Q2730 326 2704 244T2631 103T2518 11T2374 -23Q2296 -23 2231 9T2120 101T2049 241T2023 420Q2023 519 2048 601T2120 743T2232 835T2378 868Q2459 868 2524 835T2635 744T2705 603T2730 424ZM1903 424Q1903 326 1877 244T1803 103T1690 11T1546 -23Q1468 -23 1404 9T1293 101T1222 241T1196 420Q1196 519 1221 601T1293 743T1405 835T1550 868Q1631 868 1696 835T1808 744T1878 603T1903 424ZM625 1008Q625 1069 614 1119T581 1204T527 1258T455 1278Q373 1278 330 1207T287 1012Q287 950 298 900T331 815T384 761T457 741Q497 741 528 761T581 818T614 903T625 1008ZM2546 420Q2546 481 2535 531T2502 616T2448 671T2376 690Q2294 690 2251 619T2208 424Q2208 362 2219 313T2252 228T2305 173T2378 154Q2418 154 2449 174T2502 231T2535 315T2546 420ZM1718 420Q1718 481 1707 531T1674 616T1621 671T1548 690Q1467 690 1424 619T1380 424Q1380 362 1391 313T1424 228T1477 173T1550 154Q1591 154 1622 174T1675 231T1707 315T1718 420Z"/><glyph unicode="‹" horiz-adv-x="750" d="M668 0H440L61 537L440 1075H668L299 539L668 0Z"/><glyph unicode="›" horiz-adv-x="750" d="M688 539L309 0H82L451 537L82 1075H309L688 539Z"/><glyph unicode="⁄" horiz-adv-x="0"/><glyph unicode="€" horiz-adv-x="1257" d="M328 799Q326 779 326 759T326 719Q326 699 326 681T328 643H838V475H352Q370 409 399 356T469 265T565 207T688 186Q742 186 784 198T864 235T933 295T999 379L1161 262Q1121 202 1076 150T973 60T845 -1T684 -23Q550 -23 444 28T265 176T152 409T113 717Q113 893 154 1030T270 1262T452 1406T690 1456Q778 1456 846 1438T969 1382T1067 1290T1151 1159L977 1055Q947 1103 918 1139T856 1199T781 1235T686 1247Q618 1247 564 1227T469 1171T400 1083T354 967H838V799H328Z"/><glyph unicode="℗" horiz-adv-x="0"/><glyph unicode="™" horiz-adv-x="1577" d="M635 1298H406V627H268V1298H39V1434H635V1298ZM1491 627H1360V1053V1145Q1352 1126 1344 1106T1327 1065L1126 602L930 1065Q922 1085 914 1105T897 1143Q899 1121 899 1097T899 1053V627H768V1434H905L1087 1016Q1098 990 1109 959T1130 905Q1140 930 1150 959T1174 1016L1352 1434H1491V627Z"/><glyph unicode="Ω" horiz-adv-x="0"/><glyph unicode="∂" horiz-adv-x="0"/><glyph unicode="∆" horiz-adv-x="0"/><glyph unicode="∏" horiz-adv-x="0"/><glyph unicode="∑" horiz-adv-x="0"/><glyph unicode="−" horiz-adv-x="0"/><glyph unicode="∕" horiz-adv-x="0"/><glyph unicode="∙" horiz-adv-x="520" d="M422 752Q422 719 409 690T374 638T323 603T260 590Q227 590 198 603T146 638T111 689T98 752Q98 785 111 814T146 866T197 902T260 915Q293 915 322 902T374 867T409 815T422 752Z"/><glyph unicode="√" horiz-adv-x="0"/><glyph unicode="∞" horiz-adv-x="0"/><glyph unicode="∫" horiz-adv-x="0"/><glyph unicode="≈" horiz-adv-x="0"/><glyph unicode="≠" horiz-adv-x="0"/><glyph unicode="≤" horiz-adv-x="0"/><glyph unicode="≥" horiz-adv-x="0"/><glyph unicode="◊" horiz-adv-x="0"/><glyph unicode="" horiz-adv-x="0"/><glyph unicode="ﬁ" horiz-adv-x="1270" d="M1135 1350Q1135 1322 1124 1298T1095 1255T1052 1225T999 1214Q971 1214 946 1225T903 1254T873 1297T862 1350Q862 1378 873 1403T902 1446T946 1476T999 1487Q1027 1487 1051 1476T1094 1447T1124 1403T1135 1350ZM659 1282Q622 1293 593 1298T537 1303Q484 1303 461 1280T438 1198V1075H637V879H438V0H227V879H88V1075H227V1217Q227 1290 248 1341T306 1425T393 1472T500 1487Q542 1487 583 1482T659 1466V1282ZM1104 0H893V1075H1104V0Z"/><glyph unicode="ﬂ" horiz-adv-x="1270" d="M1104 0H893V1382L1104 1493V0ZM659 1282Q622 1293 593 1298T537 1303Q484 1303 461 1280T438 1198V1075H637V879H438V0H227V879H88V1075H227V1217Q227 1290 248 1341T306 1425T393 1472T500 1487Q542 1487 583 1482T659 1466V1282Z"/></font>
</defs>
</svg>
